<?xml version="1.0" encoding="UTF-8" standalone="no"?>
<svg
   xmlns:dc="http://purl.org/dc/elements/1.1/"
   xmlns:cc="http://creativecommons.org/ns#"
   xmlns:rdf="http://www.w3.org/1999/02/22-rdf-syntax-ns#"
   xmlns:svg="http://www.w3.org/2000/svg"
   xmlns="http://www.w3.org/2000/svg"
   version="1.1"
   id="svg2"
   viewBox="0 0 979.27026 1025.8072"
   height="289.50558mm"
   width="276.37183mm">
  <defs
     id="defs4" />
  <metadata
     id="metadata7">
    <rdf:RDF>
      <cc:Work
         rdf:about="">
        <dc:format>image/svg+xml</dc:format>
        <dc:type
           rdf:resource="http://purl.org/dc/dcmitype/StillImage" />
        <dc:title></dc:title>
      </cc:Work>
    </rdf:RDF>
  </metadata>
  <g
     transform="translate(-515.31311,1088.7537)"
     id="layer1">
    <path
       id="path4680"
       transform="translate(504.47044,-1088.7536)"
       d="m 679.16406,135.98242 c -1.0532,0 -1.54687,0.96396 -1.54687,3.02539 0,2.38255 0.5838,3.24269 2.75,4.05664 4.0309,1.51467 23.511,11.44976 32.75,16.70313 10.632,6.04549 30.81625,19.38686 42.16015,27.86719 32.0244,23.94047 64.36045,56.03622 87.49805,86.84765 12.6312,16.82047 17.39633,24.2917 37.95313,59.5 7.4922,12.83209 22.0403,48.08408 26.4121,64 1.43521,5.22499 3.92566,13.40503 5.53516,18.17774 4.8376,14.34564 9.09803,34.32518 12.89063,60.45117 2.9992,20.66094 3.10938,19.92218 -3.19922,21.4082 -15.45,3.63931 -27.57915,15.29293 -32.15625,30.89453 -2.3339,7.95561 -2.12925,22.58063 0.41015,29.28125 3.2088,8.46695 10.932,18.06694 17.7461,22.06055 6.9994,4.10225 10.82113,5.44846 18.79883,6.625 7.2464,1.06869 13.0786,0.49153 20.8125,-2.06055 15.69,-5.17752 26.47049,-18.13106 29.65039,-35.62695 1.1511,-6.33328 1.1138,-8.25606 -0.2793,-14.67578 -4.3804,-20.18523 -16.9843,-33.20236 -35.9668,-37.14649 -3.9958,-0.83021 -7.52841,-1.8198 -7.84961,-2.19921 -0.3212,-0.37942 -1.11306,-6.53947 -1.75976,-13.68946 -1.666,-18.42165 -8.22232,-51.51473 -14.16602,-71.5 -3.3012,-11.09981 -11.31835,-34.44693 -13.56445,-39.5 -0.7334,-1.65001 -2.21055,-5.25 -3.28125,-8 -7.5287,-19.3356 -23.45149,-50.15486 -34.02539,-65.85547 -2.5396,-3.77085 -5.96914,-8.97193 -7.61914,-11.55664 -10.561,-16.54369 -36.23524,-46.89096 -55.11524,-65.14453 -22.188,-21.45172 -52.54973,-44.81991 -78.08593,-60.10156 -14.0779,-8.42465 -44.30946,-23.8418 -46.75196,-23.8418 z m 253.45313,368.64649 c 12.1112,-0.0604 18.46224,2.58682 27.02343,11.26562 9.20722,9.33369 10.47657,12.31303 10.47657,24.58789 0,9.15778 -0.26387,10.54744 -3.13477,16.5 -3.6367,7.54039 -10.20906,14.84947 -11.50976,12.79883 -0.453,-0.71413 -0.82985,-4.11133 -0.83985,-7.54883 -0.013,-5.30431 0.25084,-6.25 1.74414,-6.25 0.9677,0 2.32287,0.89999 3.00977,2 1.7727,2.83849 4.08802,2.47621 4.79492,-0.75 0.3314,-1.5125 0.78285,-3.3285 1.00195,-4.03515 0.2192,-0.70665 -0.08,-3.51915 -0.66601,-6.25 -1.2596,-5.87343 -3.51254,-6.58255 -6.24024,-1.96485 -3.2102,5.43446 -3.98618,3.76153 -3.41796,-7.37304 0.29119,-5.70472 0.30404,-11.55472 0.0273,-13 -0.4786,-2.50383 -0.79697,-2.62696 -6.76367,-2.62696 -5.9515,0 -6.32187,-0.14277 -7.45117,-2.86914 -2.39461,-5.78108 -11.32059,-12.11274 -17.05469,-12.09766 -4.7041,0.0124 -16,10.79389 -16,15.27149 0,2.08644 4.37199,5.6953 6.90039,5.69531 1.7776,0 2.73166,-1.08737 4.38476,-5 2.6187,-6.19831 5.64447,-6.80508 8.72657,-1.75 2.9329,4.81032 2.63148,11.19966 -0.76172,16.17383 -2.9443,4.31598 -7.1742,8.49332 -8.6543,8.54492 -0.498,0.0174 -2.4105,1.17904 -4.25,2.58203 -3.4341,2.61937 -4.50074,6.61701 -2.15234,8.06836 0.6557,0.40527 7.79533,0.62486 15.86523,0.48828 14.5967,-0.24703 14.67477,-0.23617 15.29297,2.07227 1.1855,4.42715 0.72584,6.98799 -1.35156,7.53125 -1.5001,0.39227 -2,1.36341 -2,3.88672 0,3.49621 0.4032,3.76604 7,4.69336 l 2.5,0.35156 -3,1.33398 c -3.6416,1.62016 -14.1834,2.16213 -21,1.07813 -7.8606,-1.25003 -11.71416,-3.35004 -19.31836,-10.52344 -8.7999,-8.30139 -10.65483,-13.25922 -9.92383,-26.53125 0.6636,-12.04978 3.56767,-18.96316 11.00977,-26.20312 7.7612,-7.55037 14.20832,-10.09289 25.73242,-10.15039 z m 9.86133,31.00781 c 0.5239,0.32752 0.65107,5.61394 0.23437,11.0957 -0.1102,1.44935 -8.0957,1.7788 -8.0957,0.33399 0,-0.50416 0.3375,-1.06666 0.75,-1.25 1.1801,-0.52449 6.25,-7.58935 6.25,-8.70899 0,-0.55424 0.3375,-1.21465 0.75,-1.46875 0.038,-0.0237 0.0759,-0.0238 0.11133,-0.002 z"
       style="opacity:1;fill:#000000;fill-opacity:1;stroke:none;stroke-width:2.13625288;stroke-linecap:round;stroke-linejoin:round;stroke-miterlimit:4;stroke-dasharray:none;stroke-dashoffset:0;stroke-opacity:1" />
    <path
       id="path4720"
       transform="translate(504.47044,-1088.7536)"
       d="m 481.95703,0.00390625 c -14.9802,-0.1943 -29.80867,6.68617815 -38.4043,20.08007775 -3.19605,4.9802 -6.8742,17.212482 -6.91211,22.988282 l -0.0234,3.589843 -6.75,1.119141 c -3.7125,0.6155 -11.475,1.829066 -17.25,2.697266 -48.03689,7.2223 -111.58618,31.108021 -162.76367,61.175784 -19.2431,11.30569 -48.91287,32.27779 -64.68164,45.72265 -21.60708,18.42274 -45.67398,42.89947 -61.47266,62.51758 -13.90634,17.26829 -15.66231,19.53606 -22.14063,28.60352 C 91.492624,262.587 89.437358,265.9255 68.298828,302.48242 64.683788,308.73426 54.008989,330.93496 50.949219,338.56641 26.835279,398.7094 15.4043,445.74019 11.59375,500.48242 c -1.68378,24.18901 -0.33208,86.00327 2.03125,92.89844 0.54655,1.59458 0.992188,4.53107 0.992188,6.52539 0,12.11589 11.384837,61.7473 20.085937,87.56641 17.49972,51.92762 41.447179,98.09449 72.886715,140.50976 21.31762,28.7597 45.95534,55.42479 71.52735,77.41406 64.70827,55.64238 146.75233,95.88432 227.32812,111.50392 14.40873,2.7931 43.65697,6.9321 56.17188,7.9492 17.37936,1.4125 60.0766,1.2298 78,-0.334 33.6304,-2.9342 63.80451,-8.1678 90.44531,-15.6894 43.0374,-12.15113 84.96167,-29.77775 115.82227,-48.69534 3.7222,-2.28171 6.9566,-4.14845 7.1875,-4.14844 0.4998,0 15.99674,-9.73313 19.55664,-12.2832 1.3693,-0.98085 5.74471,-3.94213 9.72461,-6.58008 17.3711,-11.51393 44.21506,-34.08153 63.78906,-53.62891 15.7824,-15.76091 26.36254,-28.20827 44.21484,-52.02148 4.8349,-6.44919 27.15813,-40.34966 30.61133,-46.48633 12.6496,-22.48006 30.20686,-60.5691 37.56836,-81.5 9.2018,-26.16342 16.76054,-52.59163 15.58594,-54.49219 -0.8839,-1.43007 -3.06079,-1.2489 -4.40039,0.36524 -0.6268,0.75525 -3.12127,8.51775 -5.54297,17.25 -18.2744,65.893 -54.91303,135.70428 -97.01563,184.85547 -3.3074,3.86117 -7.33893,8.59647 -8.96094,10.52148 -7.50119,8.9024 -40.33446,40.48043 -51.10156,49.14844 -12.3757,9.96306 -33.84287,25.65764 -36.48437,26.67383 -0.825,0.31738 -2.27561,1.29671 -3.22461,2.17773 -1.6704,1.5508 -18.83531,11.92641 -35.31641,21.34766 -39.0654,22.33158 -94.39885,41.74042 -145.91015,51.17772 -47.5902,8.7188 -104.3083,9.6219 -154.3418,2.459 C 342.37723,1002.0183 254.79875,962.31 184.61719,902.42773 162.3549,883.43248 136.20372,855.75458 118.06836,831.99414 c -7.44939,-9.75998 -8.50594,-11.25586 -19.78711,-28.01172 -30.45759,-45.23852 -54.334624,-99.71761 -68.152344,-155.5 -3.84851,-15.53652 -6.009591,-27.63687 -9.644531,-54 -3.01499,-21.86681 -3.176772,-24.65054 -3.263672,-56.5 -0.12451,-45.62177 2.763162,-71.83412 12.388672,-112.5 1.5622,-6.60001 3.0804,-14.35627 3.375,-17.23633 0.7178,-7.01732 14.918429,-49.20464 22.630859,-67.23437 25.22047,-58.95912 56.494176,-105.45204 100.988286,-150.12891 23.54618,-23.64289 38.31886,-36.27127 62.51171,-53.44336 59.15593,-41.988887 124.56841,-69.331591 197.21485,-82.433591 10.0004,-1.8036 18.8802,-3.00944 19.73437,-2.68164 0.85416,0.3278 1.55274,1.633997 1.55274,2.904297 0,1.2703 1.58379,5.611284 3.51758,9.646484 6.65309,13.8826 19.50144,22.873041 36.1582,25.300781 7.42992,1.08292 8.83007,0.994574 16.47265,-1.035156 17.1885,-4.56489 28.99703,-17.042662 32.98243,-34.851563 1.1755,-5.2523 1.22609,-5.30664 4.93359,-5.30664 2.06,0 9.9768,0.683431 17.5918,1.519531 97.78,10.7371 185.45785,48.4742 263.34375,113.343747 14.3185,11.92558 47.84129,45.29845 58.90039,58.63672 43.6108,52.59853 74.13514,110.93871 93.46094,178.63281 14.6986,51.48608 21.44507,114.70682 17.60937,165.00391 -1.8027,23.63889 -1.80878,23.24545 0.38672,23.68164 1.0209,0.20283 2.22363,-0.0105 2.67383,-0.47461 2.2666,-2.33641 4.00788,-63.22159 2.45508,-85.84375 -3.7705,-54.92851 -15.53934,-106.1661 -36.17774,-157.5 -4.5875,-11.41045 -18.09387,-39.81381 -24.57617,-51.68164 -11.0054,-20.14849 -34.22773,-54.19583 -48.24023,-70.72851 -3.3048,-3.8992 -7.2839,-8.66487 -8.8418,-10.58985 -9.0809,-11.22052 -47.78829,-48.24782 -60.65039,-58.01758 -2.475,-1.87996 -6.3,-5.05149 -8.5,-7.04882 -6.117,-5.55344 -43.96075,-31.93361 -45.81055,-31.9336 -0.1813,0 -6.37346,-3.62928 -13.75976,-8.06445 -47.1895,-28.335431 -109.08129,-50.284789 -167.92969,-59.554689 -11.1592,-1.7578 -35.70778,-4.327375 -41.64258,-4.359375 l -4.14258,-0.02148 -1.08398,-6.152344 c -1.5934,-9.0462 -6.20168,-18.051284 -12.42188,-24.271484 C 505.35227,4.5846938 493.6083,0.15500625 481.95703,0.00390625 Z m -0.33008,8.07812495 c 1.07976,0 2.19328,0.041988 3.34571,0.1171876 13.0198,0.8508999 25.05767,8.9570192 31.39257,21.1367192 2.3975,4.6096 2.68085,6.2478 2.71485,15.6875 0.036,10.2073 -0.081,10.780287 -3.73242,18.179687 -4.0719,8.2514 -10.2476,14.261559 -18.4375,17.943359 -6.19558,2.7853 -18.54208,3.27605 -24.36719,0.96875 -12.18125,-4.8247 -18.22232,-9.779425 -23.79297,-19.515625 -3.76391,-6.5785 -4.10077,-7.773959 -4.26562,-15.130859 -0.31278,-13.9569 6.03164,-26.231903 17.32812,-33.533203 6.33348,-4.0935001 12.25619,-5.8754157 19.81445,-5.8535158 z"
       style="opacity:1;fill:#000000;fill-opacity:1;stroke:none;stroke-width:2.13625288;stroke-linecap:round;stroke-linejoin:round;stroke-miterlimit:4;stroke-dasharray:none;stroke-dashoffset:0;stroke-opacity:1" />
    <path
       id="path4716"
       d="m 981.44134,-1077.0035 c -1.17812,0 -2.39101,0.084 -3.35351,0.2402 -3.33884,0.543 -3.48486,0.7405 -3.20508,4.2812 0.33386,4.2252 0.0943,4.3491 -3.85938,2.0137 -1.58043,-0.9332 -3.17828,-1.394 -3.55078,-1.0215 -0.75163,0.7516 -0.55101,15.8846 0.22071,16.6563 0.26785,0.2678 1.31456,-0.03 2.32617,-0.6621 1.01161,-0.6315 2.78791,-0.8994 3.94922,-0.5957 2.05423,0.5372 2.1042,0.9804 1.78906,16.3945 -0.27027,13.2189 -0.0808,15.938 1.14453,16.4082 2.80645,1.0769 4.70817,-0.5517 8.4707,-7.252 5.31488,-9.4646 11.43539,-13.3693 15.14452,-9.6601 2.5278,2.5278 1.882,6.8697 -1.72655,11.6035 -9.0881,11.922 -10.55672,16.1195 -7.00781,20.041 2.52299,2.7879 5.73327,1.9232 6.14063,-1.6543 0.21796,-1.9142 2.43293,-5.227 6.35353,-9.5 14.0173,-15.2774 15.0882,-28.578 2.8066,-34.8593 -5.4095,-2.7667 -8.43438,-2.3969 -14.64256,1.7929 -2.44948,1.6531 -4.65491,3.0059 -4.90234,3.0059 -0.24743,0 -0.45117,-1.7754 -0.45117,-3.9453 l 0,-3.9453 4.75,-0.3047 4.75,-0.3047 0.29883,-4.5801 c 0.22032,-3.3878 -0.21582,-5.2101 -1.67188,-7 -1.96485,-2.4154 -1.97257,-2.4172 -5.13672,-0.5605 l -3.17187,1.8613 0.34179,-3.8399 c 0.31753,-3.5772 0.13521,-3.8762 -2.66015,-4.3906 -0.825,-0.1519 -1.96836,-0.2257 -3.14649,-0.2226 z"
       style="opacity:1;fill:#000000;fill-opacity:1;stroke:none;stroke-width:2.13625288;stroke-linecap:round;stroke-linejoin:round;stroke-miterlimit:4;stroke-dasharray:none;stroke-dashoffset:0;stroke-opacity:1" />
    <path
       id="path4704"
       d="m 983.58783,-991.27111 -10.5,0.17773 c -16.57784,0.28101 -29.8888,2.05307 -67.35742,8.9668 -4.32153,0.79741 -8.82153,2.05094 -10,2.78515 -1.17848,0.73421 -5.51758,2.12734 -9.64258,3.09766 -6.28311,1.47796 -24.58112,7.54561 -41.5,13.75976 -8.56581,3.14615 -25.77053,10.83433 -38.33594,17.13086 -67.33716,33.74271 -127.3067,87.19305 -167.43945,149.23633 -20.88076,32.28063 -40.2283,75.43509 -52.16016,116.34571 -16.07728,55.12391 -21.01615,113.09659 -14.52344,170.45312 1.12358,9.92571 2.492,19.73625 3.04102,21.80078 0.54902,2.06452 1.1644,7.91452 1.36719,13 0.25916,6.49909 1.57198,14.04562 4.42187,25.39844 3.82743,15.24692 12.20538,42.16743 15.40625,49.50586 0.80143,1.83738 2.71442,6.49178 4.25,10.3418 6.56986,16.47183 21.16506,45.3908 31.79492,63 18.27997,30.28219 42.51452,60.58548 68.60743,85.78515 16.8822,16.30428 25.87022,23.91731 44.07031,37.33203 33.82199,24.92915 62.38104,40.47677 103.34961,56.26172 39.40405,15.18215 77.69293,23.89675 123.15039,28.03125 4.95,0.45021 17.99996,0.87907 28.99997,0.95117 41.7235,0.27345 76.3134,-4.09213 118,-14.88867 64.1891,-16.62457 129.0112,-51.549 176.5,-95.09375 34.7695,-31.88185 57.6254,-60.22539 83.3575,-103.3789 14.6187,-24.51608 30.0631,-59.03115 39.789,-88.91407 5.65,-17.35975 5.9224,-19.58594 2.3926,-19.58593 -2.0269,0 -2.6512,0.70908 -3.541,4.01367 -2.3061,8.5641 -9.0288,28.05102 -13.793,39.98633 -17.1011,42.84117 -38.9136,80.89894 -64.8476,113.14062 -5.91,7.34743 -10.9954,13.58437 -11.3008,13.85938 -0.3054,0.27499 -5.0567,5.41012 -10.5567,11.4121 -27.1842,29.66526 -65.4944,59.46531 -103,80.11914 -74.8502,41.219 -168.6464,60.26493 -251.49997,51.06836 -82.80236,-9.19089 -156.41561,-38.38542 -220.18555,-87.32421 -35.2755,-27.07138 -68.57462,-62.50726 -92.81836,-98.77539 -4.04417,-6.05001 -8.62204,-12.87415 -10.17383,-15.16407 -1.55179,-2.28991 -2.82226,-4.47051 -2.82226,-4.8457 0,-0.37518 -0.8598,-1.89131 -1.91211,-3.36914 -2.83405,-3.98005 -21.25786,-41.08334 -26.12891,-52.62109 -20.55584,-48.68933 -31.4853,-102.08739 -32.66992,-159.61329 -1.27489,-61.90919 8.24522,-114.11803 31.43359,-172.38672 30.97726,-77.84093 79.97967,-139.64645 149.27735,-188.27539 32.43874,-22.76355 78.24368,-45.72298 112.5,-56.39062 9.99804,-3.11345 29.80865,-8.58051 33,-9.10742 1.65,-0.27242 7.4638,-1.47203 12.91797,-2.66406 14.67778,-3.20791 24.37646,-4.75219 41.08203,-6.54297 31.13772,-3.33784 28,-2.71897 28,-5.51953 z"
       style="opacity:1;fill:#000000;fill-opacity:1;stroke:none;stroke-width:2.13625288;stroke-linecap:round;stroke-linejoin:round;stroke-miterlimit:4;stroke-dasharray:none;stroke-dashoffset:0;stroke-opacity:1" />
    <g
       id="g4759">
      <path
         style="opacity:1;fill:#000000;fill-opacity:1;stroke:none;stroke-width:2.13625288;stroke-linecap:round;stroke-linejoin:round;stroke-miterlimit:4;stroke-dasharray:none;stroke-dashoffset:0;stroke-opacity:1"
         d="m 1082.4199,-990.75549 c -5.3847,-0.038 -5.3321,-0.23974 -5.3321,20.12305 0,21.29468 0.7133,24.49604 6.1914,27.83593 4.3009,2.62215 11.2683,2.6522 15.5059,0.0684 5.7969,-3.53457 6.0872,-4.7112 6.4609,-26.04296 0.1878,-10.72501 -0.022,-20.0625 -0.4668,-20.75 -0.8917,-1.37774 -6.4818,-1.66947 -8.4179,-0.43946 -0.8825,0.56063 -1.3038,6.10314 -1.5,19.73438 -0.2726,18.93824 -0.2752,18.95478 -2.5782,19.28125 -5.0076,0.70983 -5.3704,-0.72881 -5.0742,-20.08203 0.2928,-19.135 0.1566,-19.69362 -4.789,-19.72852 z"
         id="path4702" />
      <path
         style="opacity:1;fill:#000000;fill-opacity:1;stroke:none;stroke-width:2.13625288;stroke-linecap:round;stroke-linejoin:round;stroke-miterlimit:4;stroke-dasharray:none;stroke-dashoffset:0;stroke-opacity:1"
         d="m 1166.33,-990.63049 c -1.7138,0.0521 -2.948,0.38466 -3.2812,0.92383 -0.4058,0.65666 -0.5422,6.87293 -0.3028,13.81445 l 0.4356,12.6211 -5.1211,-12.48829 c -2.8165,-6.86789 -5.6099,-13.07697 -6.209,-13.79882 -0.6624,-0.7982 -2.6905,-1.19387 -5.1758,-1.01172 l -4.0879,0.29883 0.2422,23 c 0.1323,12.64999 0.25,23.33749 0.25,23.75 l 0,0 c 0.01,0.4125 2.0348,0.75 4.5098,0.75 l 4.5,0 0.016,-13.25 0.014,-13.25 5.2363,13 5.2344,13 5,0 5,0 0,-23.5 0,-23.5 -4.4004,-0.31446 c -0.6625,-0.0474 -1.2862,-0.0623 -1.8574,-0.0449 z"
         id="path4700" />
      <path
         style="opacity:1;fill:#000000;fill-opacity:1;stroke:none;stroke-width:2.13625288;stroke-linecap:round;stroke-linejoin:round;stroke-miterlimit:4;stroke-dasharray:none;stroke-dashoffset:0;stroke-opacity:1"
         d="m 1004.1796,-990.60709 c -8.40134,-0.19561 -14.0813,5.4506 -14.08787,14.29297 -0.004,4.85469 0.15163,5.10925 7.4961,12.26562 7.62297,7.42772 8.76417,9.87058 5.92967,12.70508 -1.9264,1.92644 -4.14729,1.94864 -7.42967,0.0723 -3.53884,-2.02298 -4.51933,-1.84707 -5.83789,1.04687 -1.80168,3.95425 -1.41941,5.32445 2.08789,7.46289 8.37587,5.10685 20.55667,-0.13173 22.33397,-9.60547 1.0356,-5.51987 -0.3258,-8.35255 -7.6445,-15.90039 -4.9801,-5.13599 -6.9395,-7.89054 -6.9395,-9.76172 0,-3.08041 2.8885,-4.40891 5.9844,-2.75195 2.672,1.42999 3.6133,0.76006 5.0508,-3.5957 1.466,-4.44199 0.5987,-5.45646 -5.2285,-6.11329 -0.5834,-0.0658 -1.1548,-0.10414 -1.7149,-0.11718 z"
         id="path4698" />
      <path
         style="opacity:1;fill:#000000;fill-opacity:1;stroke:none;stroke-width:2.13625288;stroke-linecap:round;stroke-linejoin:round;stroke-miterlimit:4;stroke-dasharray:none;stroke-dashoffset:0;stroke-opacity:1"
         d="m 1065.5527,-990.59339 c -1.4282,-0.0145 -2.982,-0.002 -4.6074,0.0391 l -11.3575,0.28321 0,4.5 c 0,4.47816 0.018,4.50168 3.75,4.81054 l 3.75,0.31055 0,18.77148 c 0,10.32513 0.3223,19.09573 0.7149,19.48828 0.3925,0.39256 2.53,0.5794 4.75,0.41602 l 4.0351,-0.29687 0.5,-19.5 0.5,-19.5 3.1485,-0.30665 c 2.775,-0.26954 3.194,-0.71652 3.5527,-3.78906 0.2301,-1.97125 -0.1119,-3.91652 -0.7891,-4.47851 -0.5139,-0.42657 -3.6627,-0.7046 -7.9472,-0.74805 z"
         id="path4696" />
      <path
         id="path4694"
         transform="translate(504.47044,-1088.7536)"
         d="m 607.61719,98.982422 0,23.333988 c 0,12.83334 0.30137,23.63142 0.66797,23.99804 l 0,0.002 c 1.202,1.202 7.06367,0.69685 8.23046,-0.70899 0.76591,-0.92286 0.92302,-3.71748 0.47852,-8.5 -0.3608,-3.91881 -0.35833,-7.12501 0.01,-7.125 0.3679,0 2.25134,3.4725 4.18554,7.7168 1.9342,4.24431 4.06021,8.0621 4.72461,8.48437 2.0484,1.30188 7.73349,0.89689 8.30469,-0.59179 0.2935,-0.76481 -1.48894,-5.41783 -3.96094,-10.33985 l -4.49414,-8.94922 3.06641,-3.06835 c 5.9922,-5.99235 4.5727,-17.75166 -2.6836,-22.23633 -2.5242,-1.560033 -4.98607,-2.015628 -10.89257,-2.015628 l -7.63672,0 z m 10.97851,8.999998 c 4.6005,0 6.23762,7.64133 2.44922,11.42969 -3.2644,3.2644 -4.42773,1.97001 -4.42773,-4.92969 0,-5.80808 0.21201,-6.50001 1.97851,-6.5 z"
         style="opacity:1;fill:#000000;fill-opacity:1;stroke:none;stroke-width:2.13625288;stroke-linecap:round;stroke-linejoin:round;stroke-miterlimit:4;stroke-dasharray:none;stroke-dashoffset:0;stroke-opacity:1" />
      <path
         id="path4692"
         transform="translate(504.47044,-1088.7536)"
         d="m 524.11719,99.482422 -1.33203,5.999998 c -0.7326,3.29999 -3.25543,13.75088 -5.60743,23.22461 -2.352,9.47374 -4.01967,17.48224 -3.70507,17.79688 0.3147,0.31462 2.34391,0.43877 4.50781,0.27539 3.7944,-0.28647 4.8302,-1.15379 6.0332,-5.04688 0.4059,-1.31354 1.61924,-1.75 4.86524,-1.75 4.0161,0 4.3946,0.23184 5.2832,3.25 0.8411,2.85705 1.42662,3.28775 4.85351,3.56836 2.14401,0.17556 4.18014,-0.13408 4.52344,-0.68945 0.3432,-0.55537 -1.9222,-11.27512 -5.0332,-23.82031 l -5.65625,-22.808598 -4.36523,0 -4.36719,0 z m 4.53711,21.499998 c 0.6939,0 1.93212,5.86212 1.95312,9.25 0.01,1.16903 -0.76206,1.75 -2.31836,1.75 -2.2781,0 -2.30888,-0.12194 -1.33398,-5.5 0.5483,-3.025 1.31322,-5.5 1.69922,-5.5 z"
         style="opacity:1;fill:#000000;fill-opacity:1;stroke:none;stroke-width:2.13625288;stroke-linecap:round;stroke-linejoin:round;stroke-miterlimit:4;stroke-dasharray:none;stroke-dashoffset:0;stroke-opacity:1" />
    </g>
    <path
       id="path4678"
       d="m 1002.7519,-933.61097 c -3.68986,-6.3e-4 -7.41033,0.045 -11.16407,0.13477 -21.05107,0.50344 -51.23976,3.26493 -57.70508,5.27929 -0.9379,0.29222 -3.8629,0.8933 -6.5,1.33399 -2.6371,0.44069 -10.8696,2.41839 -18.29492,4.39648 -68.70066,18.3017 -125.6782,51.02433 -174.53125,100.23633 -20.69705,20.84912 -35.83694,40.67517 -55.34375,72.4668 -7.19186,11.72109 -17.61527,32.64054 -23.16406,46.49219 -6.74204,16.8304 -13.05904,35.52918 -12.37696,36.63281 0.29457,0.47662 1.56908,0.86718 2.83399,0.86719 2.04136,0 2.71618,-1.25546 6.00586,-11.17188 11.67848,-35.20369 32.31308,-74.30254 55.84375,-105.81836 5.54767,-7.43028 11.23701,-15.08476 12.64257,-17.00976 1.40557,-1.92499 7.9624,-9.0639 14.57227,-15.86328 65.65149,-67.53366 151.14791,-106.42565 246.6875,-112.21875 71.25025,-4.3203 145.48865,13.49633 207.83005,49.875 28.7907,16.80059 50.1834,33.30088 79,60.9336 35.9288,34.4528 73.485,98.64925 90.4297,154.57617 2.4653,8.13687 2.8337,8.75025 4.8692,8.125 1.2111,-0.372 2.3647,-0.8208 2.5625,-0.99609 0.6046,-0.53588 -5.9243,-21.19875 -9.4961,-30.05664 -1.851,-4.59038 -3.3653,-9.19035 -3.3653,-10.22266 0,-6.99173 -20.657,-47.00241 -36.9941,-71.65234 -20.1448,-30.39513 -50.7534,-63.4732 -77.0059,-83.21875 -3.025,-2.27523 -7.8252,-5.93327 -10.6679,-8.13086 -18.9963,-14.68573 -47.8976,-31.59853 -72.8321,-42.6211 -50.0451,-22.123 -98.4882,-32.35965 -153.8359,-32.36914 z"
       style="opacity:1;fill:#000000;fill-opacity:1;stroke:none;stroke-width:2.13625288;stroke-linecap:round;stroke-linejoin:round;stroke-miterlimit:4;stroke-dasharray:none;stroke-dashoffset:0;stroke-opacity:1" />
    <path
       id="path4672"
       d="m 1004.4355,-873.91175 c -13.23412,-0.0931 -26.25112,0.25489 -33.34767,1.08398 -40.8413,4.77147 -76.03284,15.06231 -111,32.46094 -63.58121,31.63615 -114.01684,84.60187 -144.83399,152.09571 -6.25635,13.70223 -7.91216,18.92076 -6.31445,19.9082 2.02699,1.25275 3.75078,-0.64825 6.05274,-6.67383 3.1421,-8.22474 12.40721,-26.77236 19.59765,-39.23437 17.93523,-31.08416 42.65871,-60.81205 68.25977,-82.07422 41.95401,-34.84362 94.23808,-58.98845 146.73828,-67.76172 20.95374,-3.50157 28.64624,-4.07162 54.49997,-4.04492 23.5212,0.0243 28.4692,0.32472 44.0098,2.67968 28.3577,4.29722 51.4656,10.92338 78.5996,22.53711 14.4488,6.18427 17.2788,7.59341 31.3906,15.62891 60.0104,34.17116 107.7062,89.96231 134.6172,157.4668 2.9451,7.38762 5.9237,13.79292 6.6192,14.23437 2.1878,1.38876 3.7636,0.90692 3.7636,-1.15039 0,-4.90371 -20.1141,-49.75215 -26.0566,-58.09766 -1.0681,-1.50005 -1.9434,-3.00898 -1.9434,-3.35351 0,-1.80675 -19.7229,-29.91114 -29.5195,-42.06445 -49.9043,-61.90919 -124.6314,-102.47124 -206.4805,-112.07813 -7.967,-0.93511 -21.4182,-1.46935 -34.6523,-1.5625 z"
       style="opacity:1;fill:#000000;fill-opacity:1;stroke:none;stroke-width:2.13625288;stroke-linecap:round;stroke-linejoin:round;stroke-miterlimit:4;stroke-dasharray:none;stroke-dashoffset:0;stroke-opacity:1" />
    <path
       id="path4825"
       transform="translate(504.47044,-1088.7536)"
       d="m 184.49805,486.47461 c -8.2343,-0.11006 -12.00226,0.74836 -19.43555,4.42383 -7.68692,3.80088 -11.95138,8.25638 -16.85352,17.60937 -3.16627,6.04101 -4.55502,18.47629 -2.7539,24.67188 2.14452,7.37702 7.78264,17.29077 12.19726,21.44922 4.62539,4.35695 12.17975,8.44822 18.5918,10.06836 0.61076,0.15432 2.03252,0.27423 3.81836,0.34765 6.90841,60.21205 32.48781,118.07215 74.32617,167.81055 5.03948,5.99103 9.47346,11.01477 9.85156,11.16211 0.3782,0.14737 3.52886,3.22269 7.00196,6.83594 2.10997,2.19498 3.94984,4.04595 5.66406,5.72265 10.91361,12.18494 22.5787,23.61527 36.34961,33.9336 12.93291,9.69043 26.16547,17.82616 44.47461,27.34375 18.41999,9.57521 26.73833,13.0593 46.88672,19.63671 12.20827,3.98537 35.57554,9.7186 48.5,11.89844 26.03507,4.3911 69.8429,4.85181 91.25,0.96094 2.2672,-0.41209 3.25,-1.14349 3.25,-2.41992 0,-1.00633 -0.3369,-2.03763 -0.75,-2.29297 -0.4132,-0.25533 -7.7257,0.15249 -16.25,0.9082 -54.10614,4.7966 -108.32792,-4.61338 -157.84961,-27.39648 -44.39761,-20.4257 -76.03137,-51.15106 -110.68555,-85.80078 -4.08559,-4.6807 -8.2549,-9.75544 -12.99023,-15.79688 -34.28337,-43.73959 -56.89153,-98.29139 -63.74414,-152.44336 0.3725,-0.004 0.73802,2.7e-4 1.10937,-0.008 6.83315,-0.14868 8.49148,-0.39863 11.92383,-1.80859 12.37067,-5.08173 20.76206,-13.8684 24.42773,-25.57813 1.08264,-3.45836 1.3878,-5.99319 1.37891,-11.42773 -0.01,-6.12857 -0.24554,-7.64789 -1.92578,-12.40821 -2.39447,-6.78373 -5.45873,-11.43948 -10.91797,-16.58789 -7.85643,-7.40918 -15.94691,-10.66879 -26.8457,-10.81445 z m -0.0156,8.65039 c 8.50129,0.11361 14.81126,2.65623 20.93946,8.43555 4.25832,4.01588 6.64982,7.64605 8.51757,12.9375 1.31063,3.71316 1.49396,4.89927 1.50196,9.67968 0.007,4.23908 -0.23364,6.21452 -1.07813,8.91211 -2.85931,9.13385 -9.40334,15.98926 -19.05273,19.95313 -2.67731,1.09979 -3.97077,1.29424 -9.30078,1.41015 -3.40457,0.0741 -6.98961,-0.0656 -7.9668,-0.3125 -5.00155,-1.26375 -10.89209,-4.45499 -14.5,-7.85351 -3.4435,-3.24369 -7.84285,-10.97819 -9.51563,-16.73242 -1.40491,-4.8327 -0.32132,-14.53203 2.14844,-19.24414 3.82378,-7.29554 7.14856,-10.77156 13.14453,-13.73633 5.79813,-2.86695 8.73917,-3.53512 15.16211,-3.44922 z"
       style="opacity:1;fill:#000000;fill-opacity:1;stroke:none;stroke-width:2.13625288;stroke-linecap:round;stroke-linejoin:round;stroke-miterlimit:4;stroke-dasharray:none;stroke-dashoffset:0;stroke-opacity:1" />
    <path
       id="path4823"
       d="m 946.11483,-690.53121 c -2.99166,1.39594 -3.02344,3.51822 -0.19714,13.12824 1.85392,6.3046 3.28152,11.85441 3.17027,12.33313 -0.11044,0.47906 -6.21873,-1.31568 -13.56909,-3.98889 -14.44723,-5.25447 -20.96648,-4.72835 -16.09161,1.30019 1.57867,1.95189 6.35714,7.78811 10.61772,12.97021 8.95662,10.89264 14.598,21.97822 15.17294,29.81745 0.41613,5.67997 -7.35926,16.21988 -13.01051,17.63431 -5.13503,1.28505 -18.26208,-10.11795 -22.77036,-19.78018 -5.34509,-11.45563 -9.72892,-11.36069 -13.14964,0.28372 -4.27768,14.56128 -3.24551,21.78384 5.15314,36.118 6.98677,11.9244 7.19798,12.70689 3.49006,12.84618 -24.24016,0.90985 -36.12426,7.67844 -31.46955,17.92566 0.6735,1.48173 9.76051,6.32329 20.19339,10.7558 21.69853,9.21851 26.99141,15.02261 17.66312,19.37524 -2.97564,1.38839 -7.75182,5.09734 -10.61279,8.24034 -2.86077,3.14314 -5.59943,5.5674 -6.0864,5.39048 -5.45897,16.2288 -6.36833,20.26247 -7.34864,22.45662 -1.49342,11.37617 -0.0133,17.44178 3.453,17.01359 1.84163,-1.54456 3.82303,-3.16367 5.94151,-4.8362 0.064,-0.0812 0.12202,-0.14639 0.18574,-0.23033 0.84587,-1.12942 1.48332,-1.75488 2.2258,-1.63274 6.69244,-5.17816 13.45247,-10.03236 15.71661,-11.08876 5.3335,-2.48886 9.17058,-2.69585 15.36499,-0.82904 7.00756,2.11141 8.82301,3.70316 12.00388,10.52022 4.28037,9.17413 2.4932,18.34662 -5.26082,26.98644 -8.46809,13.61265 -1.35197,15.70461 7.37731,11.99109 6.108,-0.46279 15.96633,-6.05072 28.00271,-15.87044 2.96078,-2.41013 4.46655,-2.90063 4.28864,-1.38568 -0.15069,1.28485 0.66734,7.47978 1.82225,13.76417 1.80319,9.8079 3.06095,12.58182 8.86968,19.59977 6.04177,7.30023 13.65176,13.09311 26.76966,20.3668 7.1803,3.98144 7.6606,-2.5856 1.2047,-16.53473 -4.7343,-10.2299 -5.3894,-13.67299 -4.1639,-21.89273 1.787,-11.98656 5.5201,-14.05291 16.6096,-9.18433 9.8732,4.33467 14.0954,8.98334 17.212,18.9449 3.1399,10.03523 5.8638,11.33378 13.0098,6.21026 4.6182,-3.31092 5.9477,-5.96642 6.215,-12.41792 -0.1515,-15.48863 -11.747,-32.0804 -1.3788,-38.4606 4.9349,-3.22417 16.8333,5.85952 22.7869,17.39615 5.7802,11.20195 11.2573,12.97624 14.7157,4.76506 5.1197,-12.15371 1.3084,-32.14201 -8.6661,-45.44821 -3.198,-4.2664 -5.5753,-8.41793 -5.2811,-9.22667 0.2902,-0.80996 3.7487,-1.4677 7.678,-1.46084 14.6312,0.0252 29.5859,-8.1169 33.8823,-18.44868 4.0851,-9.82464 1.3487,-12.88971 -8.694,-9.74749 -13.2721,4.15253 -23.3901,-1.12299 -25.5263,-13.30868 -0.9915,-5.65668 -0.3301,-8.65728 2.3986,-10.87501 6.2025,-5.03599 15.5896,-6.25095 24.1957,-3.12081 4.4574,1.62129 10.7727,3.93679 5.7193,-7.38736 -5.054,-11.3238 -14.6815,-20.91622 -38.4103,-22.07734 -4.8573,-0.16563 -9.1258,-0.3829 -9.4886,-0.48221 -0.3622,-0.10015 -0.3296,-4.72814 0.077,-10.28413 0.5219,-7.12571 2.7055,-12.75875 7.4048,-19.12635 6.9033,-9.35353 6.9013,-14.65105 -0.01,-16.46075 -2.5613,-0.67092 -6.7579,0.9574 -14.0692,5.4613 -11.808,7.27353 -10.4562,8.75332 -12.5327,-13.73611 -0.9163,-9.92748 -2.5829,-15.11448 -8.1009,-25.22874 -10.1865,-18.67138 -16.5399,-18.03541 -16.7384,1.67817 -0.1336,13.2538 -4.6278,25.96283 -12.0676,34.1256 -5.104,5.60054 -5.498,5.72621 -9.9265,3.17178 -2.7431,-1.58181 -6.3821,-6.44815 -8.9783,-12.01237 -3.71868,-7.97033 -3.96758,-10.7054 -1.6979,-18.48158 2.1152,-7.24822 1.9867,-9.55177 -0.6221,-11.19245 -1.80722,-1.13608 -4.49128,-1.21105 -5.96328,-0.16662 -3.77535,2.67743 -13.19633,18.80124 -17.71591,30.32348 l -3.8179,9.73382 -4.46034,-4.08458 c -3.05269,-2.79583 -5.77112,-8.08317 -8.61122,-16.74534 -7.36959,-22.47903 -10.04196,-27.28923 -14.10559,-25.39327 z m 3.91449,45.33169 c 0.0435,-0.0435 0.095,-0.0724 0.16276,-0.0578 3.27431,0.38938 12.36687,9.52587 14.91246,14.98076 2.71791,5.82431 9.93317,8.80854 15.27461,6.31643 4.23241,-1.97475 6.47595,-8.43849 5.39995,-15.55595 -0.77776,-5.14554 0.89886,-13.45519 2.90169,-14.38971 0.60271,-0.28119 2.56856,2.4678 4.37291,6.10719 4.63872,9.35765 12.5787,20.81094 16.4143,23.68355 3.4686,2.59714 11.6609,-0.0136 12.1129,-3.861 0.1501,-1.264 2.0884,-3.14704 4.311,-4.1843 5.1844,-2.41938 14.7889,-19.30715 16.8833,-29.68892 1.8914,-9.37586 3.6641,-6.8587 5.3061,7.54303 1.5042,13.19438 -0.2458,22.77071 -4.523,24.76641 -3.5916,1.6759 -3.295,8.81814 0.5905,14.21604 2.4788,3.44368 14.06,0.28423 15.7235,-4.28986 0.5614,-1.54389 3.0195,-3.73831 5.4602,-4.8772 l 4.4362,-2.06955 -2.2197,7.01077 c -3.732,11.78058 -4.0586,23.18746 -0.8554,30.05272 1.7273,3.70233 4.1445,6.35875 5.5748,6.1276 1.389,-0.22502 6.3588,-1.06979 11.0425,-1.88074 4.6836,-0.8109 11.6456,-0.55807 15.4717,0.5636 7.6998,2.25673 6.4374,3.54445 -6.0841,6.19553 -10.2857,2.17745 -13.6094,7.76007 -13.691,22.99697 -0.077,14.46405 3.2637,18.26033 19.3905,22.0319 11.6065,2.71446 12.3343,5.38679 1.3458,4.93968 -3.6763,-0.14961 -8.9709,0.79511 -11.7674,2.09998 -2.7964,1.30524 -6.4681,1.86906 -8.1612,1.25302 -2.3596,-0.85864 -3.5229,-0.13981 -4.976,3.07727 -1.0426,2.30817 -3.0682,5.3493 -4.5014,6.75971 -3.1271,3.07826 -1.1863,7.68035 5.118,12.13312 2.5471,1.79922 5.9151,6.09363 7.4834,9.54427 8.6761,10.34611 5.9,14.07447 0.2893,9.64202 l -5.5732,-2.83127 c -3.0635,-1.55807 -6.4072,-4.58501 -7.4321,-6.72494 -2.7709,-5.78464 -5.4402,-5.24809 -17.8169,3.57732 -9.4715,6.75389 -11.073,8.69537 -10.1618,12.2993 0.5952,2.35348 2.2654,5.13267 3.7139,6.177 2.8069,2.02113 5.989,16.22053 3.8569,17.21533 -1.5358,0.71723 -18.2802,-10.32089 -19.4455,-12.81892 -1.6539,-3.53496 -10.7652,-7.84764 -13.6996,-6.47828 -1.6536,0.77164 -4.3067,0.93048 -5.8951,0.35289 -1.7367,-0.6315 -3.6772,0.0571 -4.8675,1.72786 -3.9119,5.4905 -8.52044,25.54623 -7.60798,33.10588 0.51206,4.2421 0.60185,7.86666 0.20167,8.05331 -0.39985,0.18711 -3.44868,-6.13889 -6.77425,-14.05501 -5.24876,-12.49332 -5.78744,-15.56396 -4.10259,-23.27934 l 1.93894,-8.88676 -5.34262,-1.94573 c -4.82529,-1.75521 -6.03708,-1.37912 -12.4708,3.85806 -3.9189,3.19045 -9.78135,7.03597 -13.02915,8.54496 l -5.90779,2.74487 3.21964,-8.03303 c 3.88801,-9.7016 1.81924,-19.63807 -5.76839,-27.69618 -8.93195,-9.48578 -26.42429,-10.72914 -39.39517,-2.79789 -4.18289,2.55807 -8.19597,4.26364 -8.91606,3.79118 -4.54414,-2.98151 5.57324,-14.93537 20.22715,-23.90423 9.85816,-6.03336 10.0814,-6.3762 8.89157,-13.49286 -1.94166,-11.61568 -2.8308,-12.41675 -20.64536,-18.70922 -9.3001,-3.28514 -17.25304,-6.70954 -17.67228,-7.60808 -1.22499,-2.63558 7.43903,-2.98845 22.27123,-0.91594 l 13.8212,1.92775 2.76469,-7.1247 c 3.47349,-8.94867 2.28344,-11.36575 -8.88389,-18.03968 -8.80091,-5.25994 -14.64935,-12.93523 -11.11257,-14.5854 0.98119,-0.45831 2.34324,0.36541 3.0263,1.82984 0.68103,1.46541 4.76675,3.71195 9.06519,5.00409 7.96998,2.38711 16.67369,0.27751 22.25668,-5.39443 1.62073,-1.64773 6.03684,-5.80387 9.81187,-9.23774 l 6.86495,-6.24133 -7.20499,-15.44108 c -3.71462,-7.96184 -6.02064,-14.4743 -5.40629,-15.15179 z"
       style="opacity:1;fill:#000000;fill-opacity:1;stroke:none;stroke-width:2.13625288;stroke-linecap:round;stroke-linejoin:round;stroke-miterlimit:4;stroke-dasharray:none;stroke-dashoffset:0;stroke-opacity:1" />
    <path
       id="path4821"
       transform="translate(504.47044,-1088.7536)"
       d="m 473.36133,237.15234 c -6.71032,0.0642 -13.36109,1.57378 -19.31445,4.61133 -6.55012,3.34202 -14.9826,10.7711 -18.24805,16.07813 -4.52983,7.36192 -6.38039,13.71333 -6.70899,23.02343 l -0.29492,8.38086 -8.33789,2.77735 c -28.19609,9.38996 -53.36587,22.89572 -76.375,40.98242 -18.63662,14.64962 -43.33406,42.29723 -57.91211,64.83008 -14.84184,22.94059 -28.85421,58.40958 -34.42773,87.14648 -3.93709,20.29949 -5.43327,49.00044 -3.63086,69.60156 l 3.62305,26.48633 c 0.29791,1.29597 0.61782,2.76103 0.96679,4.41211 6.68494,31.6283 19.50005,62.07138 37.25391,88.5 17.38537,25.88005 46.45637,55.02735 69.16211,69.34375 3.3,2.08073 9.73859,6.20622 14.30664,9.16797 11.19936,7.26123 29.71498,16.4955 40.69336,20.29297 29.91611,10.34815 48.79857,14.23971 76,15.66211 17.34277,0.90688 48.9722,-2.40589 67,-7.01563 5.5,-1.40636 11.575,-2.92039 13.5,-3.36523 13.1668,-3.04267 41.58656,-15.75236 59.57226,-26.64258 85.0531,-51.49896 129.74392,-141.10037 120.35743,-241.30664 -1.2981,-13.85741 -2.11979,-16.39162 -5.17969,-15.95703 -2.6719,0.3795 -2.66539,0.0395 -0.45899,21.82031 2.7222,26.87347 0.25282,55.1388 -7.42578,85 -6.7095,26.09215 -17.93229,51.01125 -32.90039,73.05274 -11.454,16.86683 -39.63031,46.99202 -45.19531,48.32226 -1.5018,0.35896 -3.7234,1.99646 -4.9375,3.63867 -1.2142,1.64221 -2.78514,2.98633 -3.49024,2.98633 -0.7051,0 -2.27638,1.34577 -3.49218,2.99024 -1.2158,1.64447 -3.1411,3.26405 -4.2793,3.59961 -2.3764,0.70062 -9.02925,4.89758 -12.28125,7.74804 -2.4793,2.17313 -3.70584,2.93232 -11.39844,7.04102 -2.964,1.58303 -6.51562,3.64223 -7.89062,4.57812 -2.9681,2.02019 -26.69079,12.26064 -34.80469,15.02344 -11.4108,3.8854 -43.80911,11.06492 -49.19531,10.90234 -1.925,-0.0581 -5.525,0.15917 -8,0.48243 -9.848,1.28626 -44,1.16668 -44,-0.1543 0,-0.42508 -3.16665,-0.86967 -7.03711,-0.98633 -4.50977,-0.13593 -10.34597,-1.26443 -16.25,-3.14258 -5.06704,-1.61189 -12.58789,-3.66648 -16.71289,-4.5664 -4.125,-0.89992 -8.52125,-2.30239 -9.77149,-3.11524 -1.25024,-0.81284 -4.85024,-1.95231 -8,-2.5332 -3.14976,-0.58089 -6.85351,-1.63311 -8.22851,-2.33789 -5.11551,-2.62205 -11.74627,-5.52931 -12.61133,-5.5293 -0.49152,0 -3.10886,-1.575 -5.81641,-3.5 -2.70755,-1.92501 -5.71872,-3.50001 -6.68945,-3.5 -0.97072,0 -2.02708,-0.42464 -2.34766,-0.94336 -0.32059,-0.51872 -3.94451,-2.7995 -8.05468,-5.06836 -4.11018,-2.26887 -8.1253,-4.77764 -8.92188,-5.57422 -2.58339,-2.58338 -10.54857,-8.41406 -11.49414,-8.41406 -0.50596,-1e-5 -1.51541,-0.58322 -2.24219,-1.29687 -0.72679,-0.71365 -3.34726,-2.693 -5.82226,-4.39649 -12.82663,-8.8283 -37.07379,-35.08621 -50.16211,-54.32031 -15.73467,-23.12305 -28.15781,-51.21839 -35.36719,-79.98633 -13.55627,-54.0943 -8.19139,-110.16271 15.49805,-161.94726 6.61956,-14.47018 9.62866,-19.89165 18.62304,-33.55274 10.35897,-15.7337 19.00583,-26.23497 33.34766,-40.5 19.0165,-18.91467 35.31391,-30.93588 58.15625,-42.89648 15.3439,-8.0343 43.28703,-19.32804 44.3418,-17.92188 0.1312,0.17492 1.6139,3.24335 3.29492,6.81836 12.81756,27.259 46.35047,34.81618 70.41211,15.86914 5.8126,-4.57705 12.5064,-15.36239 14.5039,-23.36914 0.9605,-3.85001 1.99463,-7.28576 2.29883,-7.63476 1.7311,-1.98641 46.40683,6.75006 53.39453,10.4414 2.642,1.39563 9.69004,1.41073 11.93164,0.0254 1.3163,-0.81351 -2.33394,-4.33203 -4.49414,-4.33203 -1.0509,0 -2.85988,-0.50921 -4.02148,-1.13086 -4.8985,-2.62162 -36.96721,-9.55931 -49.25781,-10.65625 -7.9673,-0.71107 -8.00126,-0.72519 -8.31836,-3.71289 -1.0783,-10.15778 -7.30678,-21.92011 -15.36328,-29.01172 -8.544,-7.52077 -19.89036,-11.42544 -31.07422,-11.31836 z m 8.99609,6.54102 7.8457,3.89453 c 9.71553,4.82261 14.72212,9.80943 19.13672,19.06055 2.879,6.03341 3.43377,8.32467 3.50977,14.5 0.1269,10.3599 -2.27498,17.51317 -8.30078,24.72461 -5.5581,6.65183 -12.65256,11.61924 -19.57031,13.70117 -4.90034,1.47479 -14.75087,1.71181 -19.86133,0.47851 -6.79272,-1.63929 -17.56569,-9.52939 -21.51563,-15.75781 -3.69563,-5.82741 -6.98437,-16.37025 -6.98437,-22.39258 0,-9.2284 5.47801,-21.62756 12.14453,-27.49218 1.29593,-1.14004 4.7671,-3.58163 7.71289,-5.42383 4.70021,-2.93935 6.61205,-3.46688 15.61914,-4.32031 l 10.26367,-0.97266 z"
       style="opacity:1;fill:#000000;fill-opacity:1;stroke:none;stroke-width:2.13625288;stroke-linecap:round;stroke-linejoin:round;stroke-miterlimit:4;stroke-dasharray:none;stroke-dashoffset:0;stroke-opacity:1" />
    <path
       id="path4664"
       transform="translate(504.47044,-1088.7536)"
       d="m 128.73242,478.98242 c -1.71245,0 -3.12753,0.33749 -3.14453,0.75 -0.017,0.4125 -0.43278,3.89999 -0.92383,7.75 -2.07392,16.26062 -2.68932,34.99576 -2.10351,52.5 0.7513,22.44911 3.09884,44.91466 7.19336,67 2.5777,13.90382 7.37721,30.43035 10.89257,41 24.96126,75.05116 69.4093,138.31105 131.47071,187.10938 50.3758,39.61004 117.0879,67.24165 181.1289,75.02343 l 10.12891,1.23047 0.5332,5.06836 c 1.18749,11.31703 7.21903,21.75694 17.52539,30.33399 6.35043,5.28488 13.2168,8.10687 22.1836,9.11523 7.3022,0.82118 15.3021,-0.0744 21.8457,-2.44531 7.1061,-2.57478 17.39831,-11.19981 22.16211,-18.57031 3.7621,-5.82073 6.99219,-16.25058 6.99219,-22.58008 l 0,-2.82227 13.75,-2.32031 c 19.7686,-3.33759 20.2094,-3.43823 37.25,-8.42578 19.0067,-5.56301 25.2084,-7.84199 25.75,-9.4668 0.7627,-2.28823 -7.37689,-1.37338 -19.52149,2.19531 -20.5639,6.04274 -49.52851,12.56253 -55.72851,12.54493 -1.5488,-0.004 -2.421,-1.30102 -3.8711,-5.74805 -6.5868,-20.20011 -23.065,-32.27218 -44.1289,-32.33008 -20.30338,-0.0558 -38.49842,14.49459 -43.56836,34.83789 -0.79322,3.18281 -1.85592,5.25 -2.69727,5.25 -3.43648,-1e-5 -29.76284,-4.40524 -39.7207,-6.64648 -33.50411,-7.54087 -60.96812,-17.61894 -92.09766,-33.79492 -13.9892,-7.26926 -16.71704,-8.89267 -35.91601,-21.38868 -12.19022,-7.93423 -30.12136,-22.18899 -44.94141,-35.72656 -50.15902,-45.8184 -89.70458,-110.705 -107.99805,-177.20117 -3.10445,-11.28458 -6.9171,-28.23235 -8.42773,-36.78906 -3.89593,-21.87933 -5.60962,-42.80778 -5.35742,-63.0293 -0.2128,-13.17793 1.1039,-29.76529 3.82422,-48.17383 0.62428,-4.22451 0.61047,-4.25 -2.48438,-4.25 z m 380.99805,394.21094 c 4.0758,-0.009 8.09495,0.56784 11.93555,1.73437 6.3446,1.92709 8.10739,3.0268 13.46289,8.38672 8.6082,8.61533 10.88314,14.61443 10.86914,28.66797 -0.01,9.47717 -0.27716,11.02033 -2.75586,15.83789 -5.3804,10.45765 -14.40915,17.15904 -26.59375,19.74219 -7.8313,1.66021 -10.04598,1.64816 -16.36328,-0.0879 -17.59121,-4.8342 -24.66973,-11.88687 -29.13477,-29.0293 -4.1031,-15.75289 7.04785,-36.42104 22.83594,-42.32812 5.16963,-1.93422 10.50384,-2.91261 15.74414,-2.92383 z"
       style="opacity:1;fill:#000000;fill-opacity:1;stroke:none;stroke-width:2.13625288;stroke-linecap:round;stroke-linejoin:round;stroke-miterlimit:4;stroke-dasharray:none;stroke-dashoffset:0;stroke-opacity:1" />
    <path
       id="path4660"
       transform="translate(504.47044,-1088.7536)"
       d="m 477.16016,248 c -1.38151,-0.0343 -2.98241,0.0318 -4.9668,0.1582 -5.29065,0.33688 -7.31264,1.03077 -11.91406,4.08594 -11.39816,7.56796 -13.79714,17.88683 -6.02344,25.91016 4.76819,4.92131 6.77083,6.06669 11.8457,6.77343 3.7118,0.51691 4.02697,0.81605 4.60742,4.39063 0.77687,4.78425 -0.64597,5.53426 -6.2871,3.31836 -2.24423,-0.88156 -4.46729,-1.36138 -4.94141,-1.06836 -0.47411,0.29302 -0.86328,2.72408 -0.86328,5.40234 0,6.44458 1.86719,8.37776 7.21289,7.47461 l 3.93945,-0.66406 -2.61133,4.13672 c -1.4367,2.27588 -2.32322,4.60809 -1.96875,5.18164 0.63889,1.03374 19.78762,0.39629 21.5918,-0.71875 1.60968,-0.99484 0.80837,-2.39817 -2.65039,-4.63867 -4.01036,-2.59781 -4.84545,-5.41909 -1.26367,-4.27149 1.2375,0.39649 3.64939,0.94021 5.35937,1.20899 2.62077,0.41193 3.2068,0.11951 3.72656,-1.85547 0.71732,-2.72573 -0.29199,-12.8418 -1.28124,-12.8418 -0.36916,0 -1.54567,0.66124 -2.61329,1.46875 -1.06762,0.8075 -3.1789,1.4825 -4.6914,1.5 -2.52118,0.0291 -2.74781,-0.28078 -2.72461,-3.71875 0.0243,-3.59212 0.28393,-3.8763 6.1582,-6.75 5.1548,-2.52173 6.60248,-3.8404 9.08399,-8.27344 2.5268,-4.51379 2.85609,-5.92155 2.27929,-9.76757 -0.761,-5.07473 -2.81696,-7.59697 -10.02539,-12.29297 C 483.47938,249.1131 481.30468,248.1028 477.16016,248 Z m -4.34961,9.37305 c 0.3505,-0.0104 0.69924,-0.01 1.04492,0.002 5.9917,0.19976 11.17254,3.64155 12.28125,8.68945 0.8581,3.9069 -0.77335,6.37807 -5.81836,8.82032 -2.38297,1.15357 -4.97677,2.02966 -5.76563,1.94726 -8.33071,-0.87027 -10.40564,-2.21116 -11.37109,-7.35742 -0.98368,-5.24348 2.02548,-10.71392 6.43555,-11.69922 1.07184,-0.23947 2.14185,-0.37105 3.19336,-0.40234 z"
       style="opacity:1;fill:#000000;fill-opacity:1;stroke:none;stroke-width:2.13625288;stroke-linecap:round;stroke-linejoin:round;stroke-miterlimit:4;stroke-dasharray:none;stroke-dashoffset:0;stroke-opacity:1" />
    <g
       id="g4736">
      <path
         style="opacity:1;fill:#000000;fill-opacity:1;stroke:none;stroke-width:2.13625288;stroke-linecap:round;stroke-linejoin:round;stroke-miterlimit:4;stroke-dasharray:none;stroke-dashoffset:0;stroke-opacity:1"
         d="m 1168.7441,-783.45862 c -0.3528,-0.009 -0.7028,-0.005 -1.0508,0.0117 -6.0325,0.28282 -11.27,4.25947 -12.5937,10.12891 -1.3485,5.97887 0.504,10.4157 6.9296,16.5918 7.037,6.76351 8.514,9.23668 7.0957,11.88672 -1.5377,2.87322 -4.5449,3.39559 -8.5683,1.48632 -4.2117,-1.99853 -5.2867,-1.31384 -6.1348,3.91211 -0.5548,3.41878 -0.3722,3.75354 2.7871,5.125 8.5213,3.69906 17.9547,0.32333 21.2383,-7.59961 3.0766,-7.42354 1.8879,-10.73638 -6.9258,-19.32421 -7.7224,-7.52453 -9.0667,-10.58589 -5.4902,-12.5 1.3759,-0.73637 2.6972,-0.69717 4.5273,0.13671 3.3052,1.50594 4.4728,0.36743 4.7871,-4.66406 0.231,-3.69859 0.073,-3.91958 -3.3867,-4.76172 -1.0787,-0.26254 -2.1565,-0.40335 -3.2148,-0.42968 z"
         id="path4650" />
      <path
         style="opacity:1;fill:#000000;fill-opacity:1;stroke:none;stroke-width:2.13625288;stroke-linecap:round;stroke-linejoin:round;stroke-miterlimit:4;stroke-dasharray:none;stroke-dashoffset:0;stroke-opacity:1"
         d="m 1110.5234,-782.77112 c -2.837,0 -4.4588,0.44992 -4.5098,1.25 -0.047,0.6875 -0.045,6.875 0,13.75 l 0.082,12.5 -5.0781,-12.48829 c -2.7928,-6.86789 -5.5685,-13.07639 -6.168,-13.79882 -0.6328,-0.76244 -2.5945,-1.18815 -4.6758,-1.01368 l -3.5859,0.30079 -0.2676,24.30859 0,0 -0.2676,24.30859 4.2676,-0.30859 4.2676,-0.30859 0.5449,-13.5 c 0.2995,-7.425 0.6535,-12.825 0.7871,-12 0.1336,0.825 2.3833,6.9 4.9981,13.5 l 4.7539,12 4.582,0.29882 c 3.109,0.2033 4.7055,-0.11824 4.9629,-1 0.2082,-0.7148 0.2331,-11.76132 0.057,-24.54882 l -0.3203,-23.25 z"
         id="path4648" />
      <path
         style="opacity:1;fill:#000000;fill-opacity:1;stroke:none;stroke-width:2.13625288;stroke-linecap:round;stroke-linejoin:round;stroke-miterlimit:4;stroke-dasharray:none;stroke-dashoffset:0;stroke-opacity:1"
         d="m 1049.7656,-782.75159 c -1.3217,0.0356 -2.5873,0.27358 -3.3262,0.74609 -0.6319,0.40408 -2.355,5.90937 -3.8301,12.23437 -1.4751,6.325 -2.9384,12.4 -3.2519,13.5 -0.3424,1.20137 -1.6957,-3.13454 -3.3868,-10.85742 -1.5484,-7.07122 -3.3383,-13.48842 -3.9785,-14.25976 -1.1411,-1.37486 -7.2363,-1.38279 -8.6074,-0.0117 -0.3517,0.3517 1.2933,8.6251 3.6563,18.38476 2.363,9.75966 4.7811,19.76914 5.373,22.24414 0.592,2.475 1.5096,5.0841 2.0391,5.79883 0.5894,0.79559 2.5416,1.18336 5.0332,1 l 4.0683,-0.29883 1.8008,-8 c 0.99,-4.4 3.6087,-14.6989 5.8203,-22.88672 2.2116,-8.18783 3.7858,-15.50033 3.4981,-16.25 -0.3462,-0.90204 -2.7055,-1.40308 -4.9082,-1.34375 z"
         id="path4646" />
      <path
         style="opacity:1;fill:#000000;fill-opacity:1;stroke:none;stroke-width:2.13625288;stroke-linecap:round;stroke-linejoin:round;stroke-miterlimit:4;stroke-dasharray:none;stroke-dashoffset:0;stroke-opacity:1"
         d="m 1126.371,-782.63831 c -0.2832,0.007 -0.5788,0.0218 -0.8847,0.0469 l -3.8985,0.32031 -0.2695,20.89453 c -0.2991,23.08589 -0.1281,23.86668 6.0742,27.64844 6.5135,3.97151 15.5166,1.55954 19.7129,-5.2832 1.8486,-3.01459 1.9787,-4.76049 1.7402,-23.25977 l -0.2578,-20 -4.5,0 -4.5,0 -0.5,19 c -0.275,10.45 -0.8636,19.5625 -1.3086,20.25 -0.4449,0.6875 -1.9192,1.25 -3.2754,1.25 -4.0578,0 -4.7083,-3.52096 -4.0566,-22 0.3201,-9.075 0.2118,-17.09475 -0.2402,-17.82031 -0.4516,-0.72465 -1.8532,-1.09855 -3.836,-1.04688 z"
         id="path4644" />
      <path
         style="opacity:1;fill:#000000;fill-opacity:1;stroke:none;stroke-width:2.13625288;stroke-linecap:round;stroke-linejoin:round;stroke-miterlimit:4;stroke-dasharray:none;stroke-dashoffset:0;stroke-opacity:1"
         d="m 1075.0488,-781.93323 c -6.0495,0.0416 -14.5416,0.4026 -15.0879,0.74023 -1.0296,0.63634 -1.1973,45.76363 -0.1738,46.78711 0.3847,0.38467 5.2222,0.5735 10.75,0.41797 l 10.0507,-0.28321 0,-4 0,-4 -6,-0.5 c -6.5755,-0.54796 -6.1216,0.12507 -5.6777,-8.45117 l 0.1777,-3.44922 5.75,-0.30078 c 5.4753,-0.28558 5.7655,-0.43313 6.0723,-3.10937 0.48,-4.18583 -1.3542,-5.68946 -6.9434,-5.68946 l -4.8789,0 0,-4.95117 0,-4.94922 5.75,-0.30078 5.75,-0.29883 0.3106,-3.75 c 0.2114,-2.55344 -0.1077,-3.77638 -1,-3.83398 -1.0892,-0.0702 -2.8331,-0.092 -4.8496,-0.0781 z"
         id="path4642" />
    </g>
    <path
       id="path4638"
       transform="translate(504.47044,-1088.7536)"
       d="m 504.87305,341.02344 c -3.3448,-7.9e-4 -7.50339,0.0888 -12.64649,0.25 -31.06672,0.97345 -51.43572,6.07864 -78.57812,19.6914 -20.72177,10.39262 -40.68724,25.2797 -55.56055,41.43164 -8.93194,9.69979 -10.06871,11.16111 -19.50977,25.08594 -12.95267,19.10421 -26.63639,53.24478 -28.55273,71.23438 -0.33782,3.17121 -1.15924,7.79061 -1.82422,10.26562 -1.65878,6.17385 -1.99068,31.14917 -0.59179,44.5 3.97007,37.89048 18.54803,73.28893 42.0039,101.99414 9.12121,11.16249 24.65286,26.12717 33.49219,32.26953 15.13245,10.5154 19.19481,13.086 27.0957,17.1543 10.2369,5.78137 20.55452,8.21898 30.9375,13.01953 1.51964,0.71314 3.18769,1.01073 7.9375,2.44922 3.93274,1.19104 3.21928,-5.43556 0,-6.26367 -12.26618,-3.1553 -23.43843,-8.54793 -36.45898,-15.19141 -26.57179,-13.52651 -51.61081,-35.81104 -68.46289,-60.93164 -21.77922,-32.46527 -30.38923,-60.68195 -31.1211,-102 -0.32692,-18.4562 -0.11815,-21.79608 2.08008,-33.5 10.08278,-53.68335 37.4619,-95.53635 82.00391,-125.35156 8.98967,-6.01744 30.89512,-16.93926 40,-19.94336 13.68691,-4.51592 20.61885,-6.42021 21.21093,-5.82812 0.34542,0.34541 1.33936,-0.0136 2.20899,-0.79688 0.86963,-0.78326 5.24427,-1.92408 9.72266,-2.53516 9.65786,-1.31781 30.20219,-1.96705 30.58789,-0.96679 0.1489,0.38602 3.72877,0.92851 7.95507,1.20507 8.0892,0.52945 8.81446,0.17242 8.81446,-4.32031 0,-2.10707 -2.70964,-2.91949 -12.74414,-2.92187 z m 180.74414,153.22851 c -0.4427,0.0386 -0.91987,0.21555 -1.29297,0.50977 -0.6634,0.52307 -3.07764,1.18826 -5.36524,1.47851 -6.6754,0.84698 -17.22558,6.63832 -23.48828,12.89454 -9.8663,9.85601 -16.2083,27.34409 -14,38.60351 1.6513,8.41949 7.77079,19.83104 13.83789,25.80274 4.9441,4.86636 14.6353,10.51312 20.5586,11.97851 1.5125,0.37419 2.75,1.23478 2.75,1.91406 0,3.7957 -10.82402,28.9744 -17.00781,39.5625 -7.97137,13.64883 -17.84749,26.44031 -29.04688,37.82618 -4.68942,3.99076 -10.32433,9.05484 -16.91797,15.29492 -5.53646,4.43667 -11.27865,8.54824 -17.19531,12.25195 -7.65067,4.46943 -16.68131,9.23719 -24.00586,12.77734 -6.08022,2.67599 -10.86262,5.04168 -17.76367,6.97071 -1.95312,0.54595 -1.94916,6.64391 0,6.08398 10.9213,-3.13732 20.70216,-7.40425 30.47851,-12.4375 6.76822,-3.5558 12.62007,-6.29167 19.45899,-11.41406 0.825,-0.76848 5.14405,-4.05393 9.59765,-7.30078 9.86847,-7.19441 19.82888,-16.60095 28.89258,-27.00391 3.37996,-3.28514 5.34528,-5.71533 5.76758,-6.92187 8.82817,-11.03768 16.49687,-22.84193 21.9043,-34.14063 3.7916,-7.92247 10.25537,-24.61875 11.51758,-29.75 0.46789,-1.90212 1.22457,-2.25 4.88867,-2.25 28.969,0 50.96286,-29.64669 42.44726,-57.2168 -5.2831,-17.10472 -17.29172,-27.86651 -36.60742,-32.80664 -4.1288,-1.05596 -7.95535,-2.19733 -8.50195,-2.53515 -0.1367,-0.0845 -0.30037,-0.13894 -0.48047,-0.16406 -0.135,-0.0188 -0.27818,-0.0203 -0.42578,-0.008 z m 0.13281,10.03516 c 6.5389,0.0126 16.38843,2.11135 17.45312,3.83398 0.29251,0.47333 1.31564,0.86133 2.27344,0.86133 3.3954,0 12.88971,9.7436 16.34961,16.7793 3.077,6.2571 3.28742,7.34592 3.23242,16.70703 -0.05,8.42469 -0.42659,10.72774 -2.37109,14.51367 -5.3272,10.37196 -13.46471,17.48961 -23.57031,20.61719 -5.954,1.84271 -19.3815,2.7628 -21.5,1.47266 -0.825,-0.5024 -3.64819,-1.67127 -6.27539,-2.59571 -6.7367,-2.37041 -17.87508,-14.96494 -20.01368,-22.63281 -4.6185,-16.55868 -1.76278,-28.12131 9.44922,-38.26758 8.3907,-7.5931 15.30649,-10.87719 23.71289,-11.26172 0.4029,-0.0184 0.82387,-0.0282 1.25977,-0.0273 z"
       style="opacity:1;fill:#000000;fill-opacity:1;stroke:none;stroke-width:2.13625288;stroke-linecap:round;stroke-linejoin:round;stroke-miterlimit:4;stroke-dasharray:none;stroke-dashoffset:0;stroke-opacity:1" />
    <path
       id="path4636"
       d="m 1188.7831,-726.77111 c -0.5702,0 -1.844,0.72882 -2.83,1.62109 -1.7128,1.55007 -1.6603,1.81686 1.1855,5.95312 1.6381,2.38095 6.1569,8.21512 10.041,12.9668 8.8042,10.77068 20.8406,29.77539 27.8848,44.0293 1.6502,3.33918 3.3044,6.37668 3.6777,6.75 1.2287,1.22863 4.3985,0.70844 4.9844,-0.81836 0.3161,-0.82368 -0.6655,-3.86118 -2.1816,-6.75 -11.7063,-22.30495 -15.5272,-28.98195 -20.7403,-36.25195 -9.0546,-12.62736 -20.9643,-27.5 -22.0215,-27.5 z"
       style="opacity:1;fill:#000000;fill-opacity:1;stroke:none;stroke-width:2.13625288;stroke-linecap:round;stroke-linejoin:round;stroke-miterlimit:4;stroke-dasharray:none;stroke-dashoffset:0;stroke-opacity:1" />
    <path
       id="path4634"
       d="m 1091.3437,-724.62658 c -0.3922,-0.004 -0.7926,0.0129 -1.2129,0.0449 -2.2422,0.17072 -4.1465,0.76054 -4.2305,1.31054 -0.084,0.55 3.2032,2.8 7.3067,5 25.3877,13.61104 50.5385,36.27953 65.8867,59.38672 3.1007,4.66821 4.6293,6.11328 6.4687,6.11329 1.3248,0 2.6794,-0.44066 3.0118,-0.97852 0.7674,-1.24169 -7.9,-14.21193 -16.1485,-24.16602 -12.3647,-14.92137 -32.6069,-31.96036 -50.2715,-42.3164 -5.7359,-3.3628 -8.065,-4.36758 -10.8105,-4.39454 z"
       style="opacity:1;fill:#000000;fill-opacity:1;stroke:none;stroke-width:2.13625288;stroke-linecap:round;stroke-linejoin:round;stroke-miterlimit:4;stroke-dasharray:none;stroke-dashoffset:0;stroke-opacity:1" />
    <g
       transform="translate(322.78002,261.85876)"
       id="g4722">
      <path
         style="opacity:1;fill:#000000;fill-opacity:1;stroke:none;stroke-width:2.13625288;stroke-linecap:round;stroke-linejoin:round;stroke-miterlimit:4;stroke-dasharray:none;stroke-dashoffset:0;stroke-opacity:1"
         d="m 726.12689,-664.68521 c -1.22214,-0.0243 -2.70278,0.1156 -3.72852,0.37305 l -2.48632,0.62305 0.59765,13.20898 c 0.66972,14.79364 0.96616,14.87885 -6.25,-1.79098 l -4.76172,-11 -4.45507,0 -4.45508,0 0.27344,22.5 c 0.14988,12.375 0.2624,23.0625 0.25,23.75 -0.0148,0.82203 1.55235,1.25 4.57617,1.25 l 4.59765,0 -0.34765,-13.41797 c -0.19146,-7.37982 -0.13962,-13.20668 0.11718,-12.94922 0.2568,0.25745 2.80841,6.1831 5.66993,13.16797 l 5.20312,12.69922 4.58985,0.30468 c 3.31056,0.2201 4.74689,-0.10082 5.15039,-1.15234 0.30774,-0.80194 0.19107,-11.73876 -0.25977,-24.30469 l -0.82031,-22.84765 -2.35156,-0.33399 c -0.32336,-0.0458 -0.702,-0.072 -1.10938,-0.0801 z"
         id="path4620" />
      <path
         style="opacity:1;fill:#000000;fill-opacity:1;stroke:none;stroke-width:2.13625288;stroke-linecap:round;stroke-linejoin:round;stroke-miterlimit:4;stroke-dasharray:none;stroke-dashoffset:0;stroke-opacity:1"
         d="m 693.77337,-663.8688 -4.59375,0.29883 -4.59179,0.29883 -0.0703,18.0625 c -0.039,9.9343 -0.36257,18.8218 -0.71875,19.75 -0.75659,1.97164 -5.21045,2.27606 -6.40039,0.4375 -0.44496,-0.6875 -1.03555,-9.57502 -1.31055,-19.75 l -0.5,-18.5 -4.40039,-0.31446 c -2.57019,-0.18389 -4.69751,0.16321 -5.11328,0.83594 -1.23804,2.0032 0.12845,38.16034 1.57617,41.70703 0.72472,1.77546 2.80832,4.1361 4.62891,5.24609 7.21731,4.40027 17.33857,1.51631 21.01953,-5.98828 1.50607,-3.07052 1.63627,-5.79078 1.09179,-22.78515 z"
         id="path4618" />
      <path
         style="opacity:1;fill:#000000;fill-opacity:1;stroke:none;stroke-width:2.13625288;stroke-linecap:round;stroke-linejoin:round;stroke-miterlimit:4;stroke-dasharray:none;stroke-dashoffset:0;stroke-opacity:1"
         d="m 651.53705,-663.66372 c -4.30734,-0.10136 -8.14932,1.39346 -11.12696,4.37109 -2.93647,2.93647 -3.32045,3.94153 -3.31445,8.67188 0.008,6.25648 1.54191,9.00383 7.99219,14.30273 5.74137,4.71653 7,6.38144 7,9.25977 0,3.65277 -4.13545,5.06938 -8.59375,2.94335 -4.11537,-1.96247 -4.84681,-1.69819 -6.22656,2.25977 -1.27497,3.65739 0.23331,6.00466 4.95898,7.71484 4.48192,1.62198 4.91401,1.61442 9.98242,-0.17382 7.32735,-2.58524 10.93081,-9.03862 9.45117,-16.92579 -0.47516,-2.53284 -2.50651,-5.26587 -7.52929,-10.13085 -3.78294,-3.66409 -7.09967,-7.51088 -7.3711,-8.54883 -0.81242,-3.10668 2.05023,-5.07433 6.32813,-4.35156 3.56784,0.60277 3.7524,0.49383 4.36328,-2.56055 1.04798,-5.23988 0.79159,-5.8202 -2.86328,-6.50586 -1.03859,-0.19484 -2.05678,-0.30278 -3.05078,-0.32617 z"
         id="path4616" />
    </g>
    <g
       transform="translate(-328.9795,12.314741)"
       id="g4727">
      <path
         style="opacity:1;fill:#000000;fill-opacity:1;stroke:none;stroke-width:2.13625288;stroke-linecap:round;stroke-linejoin:round;stroke-miterlimit:4;stroke-dasharray:none;stroke-dashoffset:0;stroke-opacity:1"
         d="m 1071.8163,-675.58947 c -0.9515,0.0497 -1.9014,0.20921 -2.6191,0.46679 -2.5825,0.92694 -2.6046,1.02877 -2.2773,9.78516 0.3654,9.77917 -0.03,10.52458 -5.5821,10.55078 l -3.25,0.0156 0,-9.91602 c 0,-6.55542 -0.3862,-10.04671 -1.1425,-10.29883 -2.3058,-0.76858 -9.3549,0.72784 -9.2559,1.96484 0.055,0.6875 0.168,11.34111 0.25,23.67579 0.1368,20.46452 0.3015,22.46306 1.8984,22.83593 0.9625,0.22474 2.875,0.2891 4.25,0.14258 1.375,-0.14652 2.8375,-0.29804 3.25,-0.33594 0.4125,-0.0379 0.75,-4.56835 0.75,-10.06835 l 0,-10 4.6172,0 4.6172,0 -0.3672,9.75 -0.3672,9.75 5.25,0.30273 5.25,0.30078 0,-24.0332 0,-24.03321 -2.6406,-0.66211 c -0.7261,-0.18224 -1.6793,-0.24301 -2.6309,-0.19335 z"
         id="path4632" />
      <path
         id="path4630"
         transform="translate(833.44994,-1101.0683)"
         d="m 163.76758,426.39844 c -1.4541,-0.0133 -2.73048,0.0831 -3.65235,0.31445 l -2.68359,0.67383 0.73047,23.20508 c 0.48139,15.28373 1.11358,23.46393 1.85351,23.96484 0.61789,0.4183 2.47305,0.64328 4.12305,0.5 l 3,-0.25976 0.34571,-8.5 0.34374,-8.5 4.15626,8.5 4.15429,8.5 4.25977,0.30859 c 3.0953,0.2238 4.41789,-0.10812 4.84179,-1.21289 0.3213,-0.83741 -1.58213,-5.57623 -4.24023,-10.55078 l -4.82617,-9.03125 2.33789,-1.63672 c 2.7347,-1.91546 5.13647,-7.13619 5.10547,-11.09571 -0.035,-4.50198 -3.5181,-10.99362 -6.8125,-12.69726 -2.7206,-1.4069 -8.67484,-2.44239 -13.03711,-2.48242 z m 5.67187,9.89844 c 0.99,0 2.34,0.53921 3,1.19921 1.8676,1.86762 1.4723,8.24298 -0.6289,10.14453 -3.3325,3.0159 -4.17188,2.04291 -4.17188,-4.84374 0,-5.5926 0.25198,-6.5 1.80078,-6.5 z"
         style="opacity:1;fill:#000000;fill-opacity:1;stroke:none;stroke-width:2.13625288;stroke-linecap:round;stroke-linejoin:round;stroke-miterlimit:4;stroke-dasharray:none;stroke-dashoffset:0;stroke-opacity:1" />
      <path
         style="opacity:1;fill:#000000;fill-opacity:1;stroke:none;stroke-width:2.13625288;stroke-linecap:round;stroke-linejoin:round;stroke-miterlimit:4;stroke-dasharray:none;stroke-dashoffset:0;stroke-opacity:1"
         d="m 1038.6699,-674.66955 c -1.7074,2.9e-4 -3.9603,0.0503 -6.9473,0.11914 l -12.1348,0.2793 0,4 c 0,3.90038 0.093,4.0079 3.75,4.31054 l 3.75,0.31055 0,19.36523 c 0,17.60322 0.1593,19.40854 1.75,19.82422 3.3607,0.87827 7.1374,0.68102 7.8106,-0.4082 0.3732,-0.60378 0.5999,-9.60378 0.5039,-20 l -0.1738,-18.90234 3.4375,0 c 3.7701,0 5.1392,-2.29658 4.0214,-6.75 -0.4281,-1.70596 -0.6454,-2.14932 -5.7675,-2.14844 z"
         id="path4628" />
      <path
         id="path4626"
         transform="translate(833.44994,-1101.0683)"
         d="m 139.3418,426.5 c -0.64445,-0.005 -1.37079,0.0746 -2.19141,0.22852 -1.93103,0.36226 -3.51172,0.87144 -3.51172,1.13086 0,1.73531 -5.58337,25.84141 -8.04883,34.74804 -1.6459,5.94594 -2.71748,11.25612 -2.38086,11.80078 0.33661,0.54465 2.7058,0.85506 5.26563,0.68946 4.30348,-0.2784 4.6922,-0.52689 5.16406,-3.30078 0.46929,-2.7588 0.87579,-3.02484 5.03711,-3.29688 4.34766,-0.28421 4.56249,-0.16654 5.49414,3 0.87687,2.98032 1.37559,3.32546 5.21875,3.60352 5.43422,0.39318 5.4385,0.82588 -0.1914,-21.60743 -2.44301,-9.7346 -4.739,-19.37116 -5.10352,-21.41406 -0.7054,-3.95323 -1.95932,-5.55935 -4.75195,-5.58203 z m -0.63672,22.79688 c 0.66964,0 1.90293,5.92727 1.92383,9.25 0.0101,1.60794 -2.91353,2.49271 -4.15039,1.25585 -0.68447,-0.68447 1.39693,-10.50585 2.22656,-10.50585 z"
         style="opacity:1;fill:#000000;fill-opacity:1;stroke:none;stroke-width:2.13625288;stroke-linecap:round;stroke-linejoin:round;stroke-miterlimit:4;stroke-dasharray:none;stroke-dashoffset:0;stroke-opacity:1" />
      <path
         style="opacity:1;fill:#000000;fill-opacity:1;stroke:none;stroke-width:2.13625288;stroke-linecap:round;stroke-linejoin:round;stroke-miterlimit:4;stroke-dasharray:none;stroke-dashoffset:0;stroke-opacity:1"
         d="m 938.24017,-673.60901 c -3.99453,0.0298 -6.17333,0.30715 -6.19336,0.80469 -0.0229,0.56861 -0.041,10.70819 -0.041,22.53321 0,11.82498 0.0181,22.18959 0.041,23.0332 0.0353,1.2989 1.68774,1.49036 10.79102,1.25 l 10.75,-0.2832 0,-4 0,-4 -6,-0.5 -6,-0.5 0,-5.5 0,-5.5 5.5,-0.006 5.5,-0.004 0.30664,-4.19336 0.30469,-4.19336 -5.80469,-0.30273 -5.80664,-0.30078 -0.30469,-4.75 -0.30469,-4.75 6.03711,0 c 5.55154,0 6.08372,-0.19518 6.64258,-2.42188 1.42991,-5.69718 0.82025,-6.05334 -10.83203,-6.36133 -1.72261,-0.0455 -3.25443,-0.0646 -4.58594,-0.0547 z"
         id="path4624" />
    </g>
    <g
       id="g4769">
      <path
         style="opacity:1;fill:#000000;fill-opacity:1;stroke:none;stroke-width:2.13625288;stroke-linecap:round;stroke-linejoin:round;stroke-miterlimit:4;stroke-dasharray:none;stroke-dashoffset:0;stroke-opacity:1"
         d="m 1368.8496,-650.62075 c -0.7271,0.0324 -1.6619,0.18016 -2.875,0.4375 -4.1603,0.8825 -4.3774,1.12238 -6.8419,7.58398 -1.3997,3.67004 -2.8006,6.92705 -3.1132,7.23633 -0.3127,0.30927 -1.915,-2.69451 -3.5625,-6.67383 l -2.9961,-7.23437 -4.3223,-0.31446 c -2.3771,-0.17277 -4.6986,0.0619 -5.1582,0.52149 -0.4596,0.4596 1.7341,6.22627 4.873,12.81445 5.6118,11.778 5.7116,12.1459 6.0196,21.97852 0.1723,5.5 0.5017,10.5625 0.7324,11.25 0.6354,1.89305 9.1191,1.63935 9.8613,-0.29493 0.3261,-0.84977 0.3332,-5.46227 0.014,-10.25 l -0.582,-8.70507 5.4883,-13.11524 c 3.3498,-8.00712 5.1744,-13.62101 4.6855,-14.41211 -0.3769,-0.60983 -1.011,-0.87622 -2.2226,-0.82226 z"
         id="path4612" />
      <path
         style="opacity:1;fill:#000000;fill-opacity:1;stroke:none;stroke-width:2.13625288;stroke-linecap:round;stroke-linejoin:round;stroke-miterlimit:4;stroke-dasharray:none;stroke-dashoffset:0;stroke-opacity:1"
         d="m 1267.996,-649.70669 c -1.6132,-0.0442 -3.6415,0.28825 -6.1269,0.97851 -8.9686,2.49083 -14.7557,11.68956 -14.7656,23.45704 -0.01,12.32955 3.3214,19.39359 10.955,23.25 4.7331,2.39107 10.9041,2.92293 14.0957,1.21484 1.3975,-0.7479 1.9336,-2.10309 1.9336,-4.88086 l 0,-3.84375 -5.5781,0.12891 c -5.0801,0.11835 -5.8318,-0.15392 -8.418,-3.04493 -5.2409,-5.85855 -4.9563,-19.46163 0.5215,-24.93945 1.8831,-1.88312 3.4461,-2.38477 7.4297,-2.38476 l 5.0449,0 0,-3.96485 c 0,-3.95119 -1.5426,-5.87343 -5.0918,-5.9707 z"
         id="path4610" />
      <path
         id="path4608"
         transform="translate(504.47044,-1088.7536)"
         d="m 807.61719,439.98242 0,22.41797 c 0,12.33002 0.28235,23.1526 0.62695,24.05078 0.4686,1.22097 1.6673,1.5573 4.75,1.33203 l 4.12305,-0.30078 0.31445,-8.5 0.3125,-8.5 4.1875,8.5 4.18555,8.5 4.25976,0.3086 c 3.0796,0.22266 4.41999,-0.1102 4.83789,-1.19922 0.3179,-0.82838 -1.59936,-5.59796 -4.25976,-10.59961 -4.4037,-8.27896 -4.68109,-9.18427 -3.08789,-10.10157 4.4991,-2.59043 6.26742,-13.07615 3.20312,-19.00195 -2.5987,-5.02513 -6.86092,-6.89834 -15.70312,-6.90234 l -7.75,-0.004 z m 10.94336,9 c 2.3519,0 5.05664,3.59592 5.05664,6.72266 0,1.25262 -0.9,3.17732 -2,4.27734 -3.7831,3.78305 -5,2.52619 -5,-5.16601 0,-5.10993 0.24106,-5.834 1.94336,-5.83399 z"
         style="opacity:1;fill:#000000;fill-opacity:1;stroke:none;stroke-width:2.13625288;stroke-linecap:round;stroke-linejoin:round;stroke-miterlimit:4;stroke-dasharray:none;stroke-dashoffset:0;stroke-opacity:1" />
      <path
         style="opacity:1;fill:#000000;fill-opacity:1;stroke:none;stroke-width:2.13625288;stroke-linecap:round;stroke-linejoin:round;stroke-miterlimit:4;stroke-dasharray:none;stroke-dashoffset:0;stroke-opacity:1"
         d="m 1282.6015,-648.27114 c -4.1562,0 -5.0489,0.32639 -5.3633,1.95898 -0.2074,1.07726 -0.047,10.29469 0.3555,20.48437 l 0.7305,18.52735 3.7636,3.76367 c 3.5343,3.53433 4.1413,3.76563 9.8985,3.76563 5.5872,0 6.4639,-0.30438 9.8672,-3.42188 l 3.7343,-3.42188 0,-20.82812 0,-20.82812 -4.9277,0 -4.9297,0 -0.07,19 -0.072,19 -3.2558,0.31445 c -2.0228,0.19494 -3.4504,-0.18809 -3.7657,-1.00977 -0.2792,-0.72765 -0.6127,-9.41946 -0.7422,-19.31445 l -0.2363,-17.99023 z"
         id="path4606" />
      <path
         id="path4604"
         transform="translate(504.47044,-1088.7536)"
         d="m 720.73633,440.95312 c -3.7904,-0.0511 -7.14023,0.36209 -7.20313,1.2793 -0.3221,4.69691 0.34556,45.36348 0.75586,46.02735 0.2813,0.45529 2.38292,0.69205 4.66992,0.52539 l 4.15821,-0.30274 0.5,-8 0.5,-8 3.76758,8.25 3.76953,8.25 4.01367,0 c 2.7324,0 4.20519,-0.5045 4.61719,-1.57812 0.3469,-0.90391 -1.36482,-5.31585 -4.01172,-10.33594 l -4.61914,-8.75781 2.42578,-2.10743 c 7.0709,-6.14802 5.1357,-19.27454 -3.5,-23.74023 -1.8228,-0.94264 -6.05345,-1.45862 -9.84375,-1.50977 z m 3.44922,9.00977 c 0.082,-0.007 0.16771,-0.007 0.25781,0.002 0.6551,0.065 1.52829,0.55559 2.68359,1.40039 2.2377,1.63619 2.57596,7.60449 0.56836,10.02344 -0.7273,0.8764 -2.16652,1.59375 -3.19922,1.59375 -1.6442,0 -1.8789,-0.80797 -1.8789,-6.5 0,-4.44675 0.33856,-6.4094 1.56836,-6.51953 z"
         style="opacity:1;fill:#000000;fill-opacity:1;stroke:none;stroke-width:2.13625288;stroke-linecap:round;stroke-linejoin:round;stroke-miterlimit:4;stroke-dasharray:none;stroke-dashoffset:0;stroke-opacity:1" />
      <path
         style="opacity:1;fill:#000000;fill-opacity:1;stroke:none;stroke-width:2.13625288;stroke-linecap:round;stroke-linejoin:round;stroke-miterlimit:4;stroke-dasharray:none;stroke-dashoffset:0;stroke-opacity:1"
         d="m 1203.9746,-647.3063 c -4.0625,-0.0196 -8.6229,0.14382 -10.1348,0.36328 l -2.7481,0.39844 0.014,17.63672 c 0.01,9.70016 0.2913,20.23898 0.6309,23.41992 l 0,0 0.6172,5.7832 10.1172,-0.2832 10.1171,-0.2832 0,-4 0,-4 -5.6601,-0.29688 -5.6602,-0.29883 -0.3398,-5.41015 -0.3399,-5.41211 5.3965,-0.29102 c 6.0711,-0.32731 7.794,-1.89943 6.7305,-6.13672 -0.6291,-2.50621 -1.0032,-2.65429 -6.7012,-2.65429 l -6.0371,0 0.3067,-4.75 0.3046,-4.75 5.7422,-0.30079 c 5.2458,-0.27374 5.8014,-0.52493 6.3985,-2.90429 1.1652,-4.64227 -0.5619,-5.79048 -8.7559,-5.83008 z"
         id="path4602" />
      <path
         style="opacity:1;fill:#000000;fill-opacity:1;stroke:none;stroke-width:2.13625288;stroke-linecap:round;stroke-linejoin:round;stroke-miterlimit:4;stroke-dasharray:none;stroke-dashoffset:0;stroke-opacity:1"
         d="m 1177.0449,-646.77114 c -4.8344,0 -4.7216,-0.24595 -7.9649,17.26367 -1.3003,7.02014 -2.6537,12.42014 -3.0078,12 -0.354,-0.42014 -1.9172,-6.76964 -3.4746,-14.10938 -2.4643,-11.61403 -3.1347,-13.48283 -5.1699,-14.41015 -1.6685,-0.7602 -3.0326,-0.74985 -4.7598,0.0371 -2.0195,0.92017 -2.5305,2.06543 -3.0762,6.91016 -0.3597,3.19413 -1.5193,12.90388 -2.5781,21.57617 -1.0588,8.67228 -1.9258,16.43478 -1.9258,17.25 0,1.08711 1.1843,1.48243 4.4414,1.48243 2.4426,0 4.6799,-0.385 4.9707,-0.85547 0.2908,-0.47048 0.8322,-5.19548 1.2051,-10.5 0.3729,-5.30453 0.9654,-9.64454 1.3164,-9.64453 0.351,0 1.4732,4.1625 2.4942,9.25 2.4478,12.19725 2.1938,11.75 6.705,11.75 4.6675,0 4.9135,-0.46549 7.4883,-14.1211 l 1.7696,-9.3789 1.3222,10.5 c 0.7275,5.77499 1.5253,11.0625 1.7735,11.75 0.6569,1.81951 7.4428,1.59676 8.1582,-0.26758 0.4703,-1.22574 -3.605,-35.52364 -5.2559,-44.23242 -0.3579,-1.88788 -1.0706,-2.25 -4.4316,-2.25 z"
         id="path4600" />
    </g>
    <path
       id="path4590"
       d="m 1376.2968,-598.56216 c -0.2531,0.0206 -0.501,0.0728 -0.7285,0.16016 -1.4798,0.56784 -1.5654,1.93056 -0.8164,12.88281 1.2446,18.20008 0.9513,57.47166 -0.5371,71.94726 -0.7185,6.98492 -0.9989,13.19861 -0.6231,13.80664 1.1681,1.88997 3.8179,0.62269 4.5684,-2.18359 3.9278,-14.68704 4.0508,-92.10154 0.1523,-96 -0.4491,-0.44918 -1.2563,-0.6751 -2.0156,-0.61328 z"
       style="opacity:1;fill:#000000;fill-opacity:1;stroke:none;stroke-width:2.13625288;stroke-linecap:round;stroke-linejoin:round;stroke-miterlimit:4;stroke-dasharray:none;stroke-dashoffset:0;stroke-opacity:1" />
    <path
       id="path4588"
       d="m 1312.8046,-595.77114 0.6719,6.25 c 1.5224,14.15995 2.63,38.82978 2.1231,47.25 -1.2763,21.19934 -1.7339,26.5185 -3.084,35.74218 -0.7844,5.35888 -1.4278,9.97138 -1.4278,10.25 0,0.27862 1.288,0.50781 2.8614,0.50782 2.6971,0 2.901,-0.30026 3.5488,-5.25 3.9437,-30.13396 4.725,-61.02294 2.082,-82.2129 -0.8206,-6.5791 -1.4922,-12.0916 -1.4922,-12.25 0,-0.15841 -1.1891,-0.2871 -2.6425,-0.2871 z"
       style="opacity:1;fill:#000000;fill-opacity:1;stroke:none;stroke-width:2.13625288;stroke-linecap:round;stroke-linejoin:round;stroke-miterlimit:4;stroke-dasharray:none;stroke-dashoffset:0;stroke-opacity:1" />
    <path
       id="path4578"
       transform="translate(504.47044,-1088.7536)"
       d="m 676.50195,508.18164 c -2.2952,-0.10648 -3.49437,3.99979 -1.54297,9.66406 1.4264,4.13993 1.41667,4.17836 -1.80273,7.39844 -4.6477,4.64869 -5.52487,11.17954 -2.35937,17.55859 1.99579,4.02207 3.09251,4.98624 7.82031,6.86329 3.025,1.20103 5.45539,2.66353 5.40039,3.25 -0.055,0.58648 -0.168,1.72976 -0.25,2.54101 -0.1126,1.10691 -0.93483,1.31849 -3.29883,0.8457 -3.9217,-0.78435 -5.85156,1.43947 -5.85156,6.74805 0,4.49512 1.99319,6.5402 4.87109,5 3.2686,-1.74931 4.12891,-1.25532 4.12891,2.36524 0,2.97806 0.3648,3.48828 2.75,3.8496 5.6452,0.85519 11.25,0.68851 11.25,-0.33398 0,-0.57731 -0.6731,-2.35189 -1.4961,-3.94336 -1.8551,-3.58749 -0.80039,-4.40109 4.53321,-3.5 l 3.96289,0.66992 0,-6.58789 c 0,-5.61964 -0.2572,-6.58374 -1.75,-6.55664 -0.9625,0.0175 -2.62176,0.6925 -3.68946,1.5 -2.819,2.13225 -3.56054,1.82857 -3.56054,-1.45898 0,-2.56733 0.6608,-3.22846 5.375,-5.38672 4.6742,-2.1399 5.60361,-3.06038 7.13281,-7.06445 2.1829,-5.71582 1.52756,-10.57427 -2.05664,-15.27344 -2.3447,-3.07406 -2.50984,-3.78966 -1.46484,-6.3125 1.5038,-3.63048 1.00065,-7.02667 -1.24805,-8.4336 -1.4473,-0.90558 -2.17069,-0.5887 -4.05859,1.77735 -1.7133,2.14719 -3.55409,3.08433 -7.23829,3.68164 -5.658,0.91732 -8.5028,-0.47756 -11.9414,-5.85547 -1.303,-2.03785 -2.57194,-2.95746 -3.61524,-3.00586 z m 14.31446,17.80469 c 3.6183,-0.005 7.77052,4.03247 8.44921,8.21484 0.48351,2.97956 0.10357,3.79282 -3.08203,6.58985 -4.0624,3.5668 -9.32279,4.29052 -11.96679,1.64648 -1.9883,-1.98828 -4.04768,-8.84223 -3.26758,-10.875 0.8701,-2.26745 6.71769,-5.57217 9.86719,-5.57617 z"
       style="opacity:1;fill:#000000;fill-opacity:1;stroke:none;stroke-width:2.13625288;stroke-linecap:round;stroke-linejoin:round;stroke-miterlimit:4;stroke-dasharray:none;stroke-dashoffset:0;stroke-opacity:1" />
    <g
       id="g4780">
      <path
         style="opacity:1;fill:#000000;fill-opacity:1;stroke:none;stroke-width:2.13625288;stroke-linecap:round;stroke-linejoin:round;stroke-miterlimit:4;stroke-dasharray:none;stroke-dashoffset:0;stroke-opacity:1"
         d="m 1400.4863,-493.63052 c -0.7788,0.009 -1.7374,0.20748 -2.9219,0.42969 l -3.2539,0.61133 0.3594,23.1582 c 0.1974,12.73771 0.3716,23.49765 0.3886,23.91016 0.046,1.14911 8.8247,0.89048 9.5489,-0.28126 0.3499,-0.56677 0.3136,-11.34299 -0.082,-23.94726 -0.6411,-20.41848 -0.6644,-23.92088 -4.0391,-23.88086 z"
         id="path4566" />
      <path
         id="path4564"
         transform="translate(504.47044,-1088.7536)"
         d="m 971.01562,595.12305 c -1.13249,-0.0208 -2.46703,0.006 -4.08593,0.0664 l -7.8125,0.29297 0.38672,23 c 0.2582,15.39967 0.754,23.24247 1.5,23.73438 1.5272,1.00696 5.81415,0.92435 7.50195,-0.14453 1.0597,-0.67105 1.27314,-2.67097 0.90234,-8.44922 -0.2672,-4.16368 -0.15836,-7.36945 0.24024,-7.12305 0.3987,0.2464 2.21044,3.8306 4.02734,7.96484 2.0003,4.55172 3.92275,7.55885 4.87305,7.62305 3.4212,0.23102 7.61334,-0.31768 8.43164,-1.10351 0.4763,-0.45745 -1.38385,-4.79008 -4.15235,-9.66602 l -5.01757,-8.83594 3.04492,-3.19336 c 5.9641,-6.25396 4.52415,-17.81902 -2.78125,-22.33398 -2.0712,-1.27999 -3.66109,-1.76958 -7.0586,-1.83203 z m -0.59765,8.85937 c 0.99,0 2.34,0.53922 3,1.19922 1.8676,1.86762 1.47229,8.24297 -0.62891,10.14453 -3.3325,3.0159 -4.17187,2.04291 -4.17187,-4.84375 0,-5.59259 0.25198,-6.5 1.80078,-6.5 z"
         style="opacity:1;fill:#000000;fill-opacity:1;stroke:none;stroke-width:2.13625288;stroke-linecap:round;stroke-linejoin:round;stroke-miterlimit:4;stroke-dasharray:none;stroke-dashoffset:0;stroke-opacity:1" />
      <path
         style="opacity:1;fill:#000000;fill-opacity:1;stroke:none;stroke-width:2.13625288;stroke-linecap:round;stroke-linejoin:round;stroke-miterlimit:4;stroke-dasharray:none;stroke-dashoffset:0;stroke-opacity:1"
         d="m 1425.9882,-493.50747 c -2.3215,0.0392 -5.1873,0.17796 -8.0371,0.40625 l -10.3633,0.83008 0,4 c 0,3.90037 0.093,4.0079 3.75,4.31054 l 3.75,0.31055 0.1856,8.68945 c 0.1017,4.77929 0.2292,12.96444 0.2832,18.18946 0.054,5.225 0.4484,10.0625 0.875,10.75 0.8519,1.37256 6.4434,1.67102 8.3691,0.44726 0.8937,-0.56792 1.157,-5.76358 1,-19.73437 l -0.2129,-18.96289 3.5,-0.5 c 3.2098,-0.45856 3.5258,-0.80857 3.8086,-4.2168 0.2679,-3.22807 -0.012,-3.79689 -2.1367,-4.33008 -0.6725,-0.1688 -2.45,-0.22866 -4.7715,-0.18945 z"
         id="path4562" />
      <path
         style="opacity:1;fill:#000000;fill-opacity:1;stroke:none;stroke-width:2.13625288;stroke-linecap:round;stroke-linejoin:round;stroke-miterlimit:4;stroke-dasharray:none;stroke-dashoffset:0;stroke-opacity:1"
         d="m 1457.5878,-493.27114 -9.9765,0.27734 c -5.4872,0.15221 -10.3145,0.6153 -10.7285,1.0293 -0.414,0.41401 -0.4651,10.9899 -0.1133,23.5039 l 0.6386,22.75391 10.5782,-0.28321 c 11.4763,-0.30616 12.0985,-0.67679 10.6718,-6.36132 -0.5581,-2.22364 -1.0942,-2.41992 -6.5878,-2.41992 l -5.9825,0 0,-5.45118 0,-5.44922 5.75,-0.30078 5.75,-0.29882 0.3086,-4.25 0.3067,-4.25 -6.0567,0 -6.0586,0 0,-5 0,-5 6.0586,0 6.0567,0 -0.3067,-4.25 z"
         id="path4560" />
      <path
         id="path4558"
         transform="translate(504.47044,-1088.7536)"
         d="m 867.59961,596.40039 c -1.5139,0.0243 -2.91469,0.14402 -3.83789,0.35156 l -3.35742,0.75391 0.15625,22.91602 c 0.087,12.60337 0.40142,23.30919 0.69922,23.79101 0.2978,0.4818 2.41221,0.73893 4.69921,0.57227 l 4.15821,-0.30274 0.5,-7.46289 0.5,-7.46484 3.48437,-0.70703 c 4.4165,-0.89777 9.67186,-6.51232 10.56836,-11.29102 2.0117,-10.72373 -3.62774,-19.76828 -13.05664,-20.93945 -1.3737,-0.17062 -2.99977,-0.24112 -4.51367,-0.2168 z m 3.89648,9.58203 c 1.0327,0 2.43499,0.67212 3.11719,1.49414 1.2713,1.53181 1.62092,8.69953 0.51172,10.49414 -0.3401,0.55038 -1.44849,1.44539 -2.46289,1.98828 -2.4162,1.29313 -3.04492,-0.36973 -3.04492,-8.05859 0,-5.12289 0.2537,-5.91797 1.8789,-5.91797 z"
         style="opacity:1;fill:#000000;fill-opacity:1;stroke:none;stroke-width:2.13625288;stroke-linecap:round;stroke-linejoin:round;stroke-miterlimit:4;stroke-dasharray:none;stroke-dashoffset:0;stroke-opacity:1" />
      <path
         style="opacity:1;fill:#000000;fill-opacity:1;stroke:none;stroke-width:2.13625288;stroke-linecap:round;stroke-linejoin:round;stroke-miterlimit:4;stroke-dasharray:none;stroke-dashoffset:0;stroke-opacity:1"
         d="m 1336.6035,-491.77111 c -6.9045,-10e-6 -6.6406,-0.95114 -5.9258,21.36718 0.7021,21.92365 1.0238,23.20577 6.7148,26.67578 6.257,3.81511 16.0364,1.71284 19.6817,-4.23242 1.8874,-3.0781 2.0111,-4.71277 1.7714,-23.31054 l -0.2578,-20 -4.75,-0.30469 c -3.3726,-0.21641 -4.7685,0.0736 -4.8125,1 -0.035,0.71763 -0.01,9.10146 0.061,18.63086 0.1259,17.90344 -0.3253,20.17383 -3.998,20.17383 -3.412,0 -3.8933,-2.31687 -4.0684,-19.54102 -0.095,-9.32775 -0.3736,-17.74649 -0.6191,-18.70898 -0.3138,-1.22967 -1.4424,-1.75 -3.7969,-1.75 z"
         id="path4556" />
      <path
         style="opacity:1;fill:#000000;fill-opacity:1;stroke:none;stroke-width:2.13625288;stroke-linecap:round;stroke-linejoin:round;stroke-miterlimit:4;stroke-dasharray:none;stroke-dashoffset:0;stroke-opacity:1"
         d="m 1315.5878,-490.27111 0.3653,19.17773 0.3632,19.17773 -3.3632,0.32227 c -3.007,0.2877 -3.3992,0.67802 -3.6856,3.66797 -0.1762,1.83985 -0.078,3.97735 0.2188,4.75 0.6614,1.72365 7.4489,1.88718 11.0078,0.26562 4.9635,-2.26151 5.6625,-5.85904 5.3652,-27.55859 l -0.2715,-19.80273 -5,0 z"
         id="path4554" />
    </g>
    <path
       id="path4540"
       d="m 1301.7558,-455.27111 c -0.4578,0 -2.7592,5.175 -5.1133,11.5 -7.4908,20.12659 -13.2505,32.1287 -24.7148,51.5 -33.0348,55.81897 -85.5598,102.18958 -143.3399,126.54492 -10.8468,4.57212 -12.7686,5.71103 -11.9297,7.06836 0.7311,1.18301 8.0066,1.13419 10.1934,-0.0684 0.9551,-0.52517 9.1613,-4.5249 18.2363,-8.88868 57.9667,-27.87362 106.1442,-74.65597 139.1778,-135.14843 3.7521,-6.87106 6.8222,-12.82656 6.8222,-13.23242 0,-0.40587 1.7228,-4.45779 3.8282,-9.00586 6.3844,-13.79266 8.3265,-19.95909 7.9843,-25.35743 -0.1713,-2.70151 -0.6866,-4.9121 -1.1445,-4.9121 z"
       style="opacity:1;fill:#000000;fill-opacity:1;stroke:none;stroke-width:2.13625288;stroke-linecap:round;stroke-linejoin:round;stroke-miterlimit:4;stroke-dasharray:none;stroke-dashoffset:0;stroke-opacity:1" />
    <path
       id="path4538"
       d="m 1361.1406,-438.47424 c -0.389,-0.0154 -0.8214,0.0599 -1.2813,0.23633 -0.7751,0.29742 -3.7827,6.93704 -6.6836,14.7539 -6.004,16.17885 -17.733,41.02902 -27.0058,57.2129 -30.5786,53.36905 -73.9357,98.31587 -125.9512,130.57031 -10.5797,6.56044 -11.7976,7.74804 -10.7461,10.48828 0.5008,1.30519 1.6995,0.95797 7.3574,-2.12891 7.2293,-3.94422 28.8334,-18.43914 36.2578,-24.32617 51.303,-40.67992 85.0111,-82.8367 112.8457,-141.13672 6.8342,-14.31436 17.1543,-40.38374 17.1543,-43.33008 0,-1.42815 -0.7805,-2.29376 -1.9472,-2.33984 z"
       style="opacity:1;fill:#000000;fill-opacity:1;stroke:none;stroke-width:2.13625288;stroke-linecap:round;stroke-linejoin:round;stroke-miterlimit:4;stroke-dasharray:none;stroke-dashoffset:0;stroke-opacity:1" />
    <g
       id="g4791">
      <path
         style="opacity:1;fill:#000000;fill-opacity:1;stroke:none;stroke-width:2.13625288;stroke-linecap:round;stroke-linejoin:round;stroke-miterlimit:4;stroke-dasharray:none;stroke-dashoffset:0;stroke-opacity:1"
         d="m 1174.5878,-254.75159 c -9.9252,-0.023 -15.8939,6.97753 -13.625,15.98047 0.8717,3.45897 2.4844,5.77237 6.9727,10 6.9209,6.51886 8.2238,8.68501 7.0664,11.75 -0.9763,2.5856 -5.0924,3.03663 -9.4766,1.03906 -2.2961,-1.04617 -2.8451,-0.95212 -4.0468,0.6914 -0.7648,1.04586 -1.3907,3.11746 -1.3907,4.60352 0,2.17902 0.7257,3.0034 3.75,4.25781 4.4752,1.85622 8.1168,2.03658 11.9356,0.59375 6.6277,-2.50413 11.2239,-10.40174 9.6875,-16.64844 -0.3771,-1.53311 -4.0277,-6.23258 -8.1113,-10.44336 -5.6576,-5.83378 -7.3467,-8.21383 -7.0938,-10 0.2972,-2.09892 0.8516,-2.34375 5.291,-2.34374 4.9297,-1e-5 4.9619,-0.0221 5.875,-3.86329 1.1341,-4.7711 0.1235,-5.60108 -6.834,-5.61718 z"
         id="path4518" />
      <path
         style="opacity:1;fill:#000000;fill-opacity:1;stroke:none;stroke-width:2.13625288;stroke-linecap:round;stroke-linejoin:round;stroke-miterlimit:4;stroke-dasharray:none;stroke-dashoffset:0;stroke-opacity:1"
         d="m 1138.5097,-253.57581 c -0.4614,0.002 -0.9361,0.013 -1.4219,0.0332 l -6.5,0.27149 -0.2675,23.75 -0.2676,23.75 4.4355,0 c 2.6392,0 4.6187,-0.50613 4.8887,-1.25 0.2492,-0.6875 0.2755,-4.625 0.059,-8.75 l -0.3945,-7.5 4.3125,8.5 4.3144,8.5 4.711,0.30468 c 6.0847,0.39372 6.0938,-0.58002 0.125,-11.61914 l -4.5821,-8.47656 2.5508,-2.10547 c 5.0505,-4.16431 6.1584,-12.9978 2.3457,-18.70508 -3.1618,-4.73299 -7.388,-6.73774 -14.3086,-6.70312 z"
         id="path4514" />
      <path
         style="opacity:1;fill:#000000;fill-opacity:1;stroke:none;stroke-width:2.13625288;stroke-linecap:round;stroke-linejoin:round;stroke-miterlimit:4;stroke-dasharray:none;stroke-dashoffset:0;stroke-opacity:1"
         d="m 1110.8359,-253.57381 c -0.4121,-0.007 -0.8356,0.005 -1.2481,0.041 -3.5013,0.30405 -2.9573,-1.20547 -9.9316,27.66601 -3.733,15.45306 -4.4204,19.57268 -3.377,20.23438 1.9766,1.25354 6.4324,1.02499 7.5801,-0.38867 0.5582,-0.6875 1.1805,-2.15001 1.3848,-3.25 0.3119,-1.68008 1.1617,-2 5.3125,-2 4.4479,0 5.0004,0.2496 5.5273,2.5 0.5109,2.1819 1.2018,2.53981 5.4278,2.81054 4.6306,0.29665 4.8153,0.20928 4.2168,-2 -0.3442,-1.27061 -2.9682,-11.76054 -5.8301,-23.31054 -2.862,-11.55002 -5.6786,-21.34343 -6.2578,-21.76172 -0.4344,-0.31373 -1.5685,-0.51858 -2.8047,-0.54102 z"
         id="path4512" />
      <path
         style="opacity:1;fill:#000000;fill-opacity:1;stroke:none;stroke-width:2.13625288;stroke-linecap:round;stroke-linejoin:round;stroke-miterlimit:4;stroke-dasharray:none;stroke-dashoffset:0;stroke-opacity:1"
         d="m 1062.3554,-252.64217 c -0.4536,-0.0114 -0.9262,0.004 -1.3906,0.0488 -3.0737,0.29383 -3.4408,0.68164 -4.1016,4.32227 -1.0768,5.93235 -4.7912,37.5677 -4.7812,40.75 0.01,2.5337 0.3162,2.75 3.9472,2.75 2.1676,0 4.1632,-0.35745 4.4336,-0.79493 0.2704,-0.43748 1.0555,-5.72498 1.7461,-11.75 1.3764,-12.00904 1.3084,-12.06229 4.625,3.54493 1.7966,8.45438 1.8237,8.50183 5.0957,8.81835 1.8093,0.17503 3.8382,-0.13795 4.5098,-0.69531 0.6716,-0.55737 2.092,-5.74054 3.1543,-11.51758 1.0622,-5.77704 2.1629,-10.27072 2.4473,-9.98632 0.2844,0.28441 0.9749,5.32424 1.5332,11.19921 l 1.0136,10.68165 4.5,0 c 3.3333,0 4.5,-0.38889 4.5,-1.5 0,-1.71951 -4.1818,-34.23334 -5.2734,-41 -0.6909,-4.28257 -0.8983,-4.51475 -4.3106,-4.80079 -2.0916,-0.17533 -4.0017,0.24133 -4.5839,1 -0.5489,0.71531 -2.0122,6.70078 -3.252,13.30079 -1.2398,6.6 -2.5149,13.11255 -2.832,14.47265 -0.3931,1.68589 -1.6026,-2.24017 -3.8008,-12.33789 -1.7734,-8.14639 -3.6677,-15.2556 -4.209,-15.79687 -0.406,-0.40596 -1.6097,-0.67483 -2.9707,-0.70899 z"
         id="path4510" />
      <path
         style="opacity:1;fill:#ffffff;fill-opacity:1;stroke:none;stroke-width:2.13625288;stroke-linecap:round;stroke-linejoin:round;stroke-miterlimit:4;stroke-dasharray:none;stroke-dashoffset:0;stroke-opacity:1"
         d="m 1140.6562,-244.79061 c 0.082,-0.007 0.1677,-0.007 0.2578,0.002 0.6551,0.065 1.5283,0.55559 2.6836,1.40039 2.2377,1.63619 2.576,7.60448 0.5684,10.02343 -0.7273,0.8764 -2.1666,1.59375 -3.1993,1.59376 -1.6442,0 -1.8789,-0.80799 -1.8789,-6.5 0,-4.44675 0.3386,-6.40941 1.5684,-6.51954 z"
         id="path4508" />
      <path
         style="opacity:1;fill:#ffffff;fill-opacity:1;stroke:none;stroke-width:2.13625288;stroke-linecap:round;stroke-linejoin:round;stroke-miterlimit:4;stroke-dasharray:none;stroke-dashoffset:0;stroke-opacity:1"
         d="m 1110.5468,-231.77107 c 0.4942,0.0336 1.0084,2.31213 1.9317,7.25 0.6609,3.53476 0.5554,3.75 -1.8438,3.75 -2.9205,-1e-5 -2.9397,-0.0977 -1.3887,-7.20118 0.5443,-2.49295 0.9164,-3.82494 1.3008,-3.79882 z"
         id="path4504" />
    </g>
    <path
       id="path4500"
       transform="translate(504.47044,-1088.7536)"
       d="m 524.19727,879.96484 c -1.045,10e-4 -2.43001,0.41874 -4.28321,1.20704 -3.9125,1.6643 -14.64202,8.084 -15.54492,9.30078 -1.5021,2.02441 -0.16561,4.01937 3.02148,4.50976 l 3.25,0.5 -3.76171,6.42969 c -3.699,6.32323 -3.83536,6.432 -8.28516,6.61328 -2.4884,0.10138 -7.09873,0.9327 -10.24609,1.84766 -5.33189,1.55003 -5.90166,2.01454 -8.33594,6.81836 -2.04361,4.0328 -2.50399,6.1216 -2.11328,9.58789 0.6199,5.49979 2.89606,8.64592 9.73047,13.45312 7.33892,5.16205 12.49057,5.219 18.60937,0.20508 5.483,-4.49309 7.15666,-9.31497 5.50586,-15.87109 -1.1195,-4.44577 -1.03325,-4.77281 3.43945,-13.04493 l 4.58594,-8.48632 2.47656,1.62304 c 1.6264,1.06566 2.81314,1.28256 3.46094,0.63477 1.2913,-1.29127 2.38091,-16.99117 1.50391,-21.66602 -0.4711,-2.51135 -1.27207,-3.66443 -3.01367,-3.66211 z m -29.80469,38.01758 c 1.07434,-1e-5 3.17542,1.22227 4.66992,2.7168 2.4352,2.43518 2.64621,3.18794 2.03711,7.25 -0.3738,2.49297 -1.10024,5.32069 -1.61523,6.2832 -2.5563,4.77687 -10.89139,-1.31932 -10.83399,-7.92383 0.0378,-4.35241 2.77943,-8.32618 5.74219,-8.32617 z"
       style="opacity:1;fill:#000000;fill-opacity:1;stroke:none;stroke-width:2.13625288;stroke-linecap:round;stroke-linejoin:round;stroke-miterlimit:4;stroke-dasharray:none;stroke-dashoffset:0;stroke-opacity:1" />
    <path
       id="path4825-6"
       transform="translate(504.47044,-1088.7536)"
       d="m 182.61719,500.94727 c -4.16305,0.14677 -7.41101,1.40068 -11.97461,4.48437 -3.36862,2.27626 -7.61099,8.41112 -8.41602,12.17188 -0.95857,4.47802 -0.80045,11.27512 0.3418,14.70507 1.19684,3.59366 4.00619,7.87516 6.91406,10.53711 3.21164,2.20477 4.53966,2.6053 5.24805,3.09571 3.62857,1.85249 4.56965,2.18827 6.76953,2.41797 7.92886,0.82776 14.81651,-1.41287 20.04883,-6.52344 1.54537,-1.50935 2.42232,-2.75437 3.95312,-5.60938 1.72622,-3.21955 2.03113,-4.08335 2.49414,-7.05664 0.65975,-4.23714 0.36595,-7.54633 -1.04492,-11.79101 -2.03039,-6.10858 -5.35572,-10.10414 -11.03515,-13.25977 -4.29092,-2.3842 -6.51121,-2.99709 -11.45118,-3.16797 -0.63858,-0.0221 -1.25293,-0.0248 -1.84765,-0.004 z m -0.0762,8.13671 c -0.27654,4.94793 -0.48946,9.83841 -0.62891,14.29493 -3.13188,-0.12908 -7.12903,-0.31889 -12.35547,-0.59571 0.0636,-0.98278 0.17674,-1.93201 0.35352,-2.75781 0.5317,-2.48383 3.33377,-6.53574 5.55859,-8.03906 2.70021,-1.82461 4.70753,-2.67422 7.07227,-2.90235 z m 3.83789,0.0684 c 2.10826,0.21524 3.53221,0.71714 5.78125,1.9668 3.75093,2.08413 5.94614,4.72346 7.28711,8.75781 0.51807,1.55867 0.80194,2.92826 0.88281,4.31641 -6.45224,-0.35643 -10.20539,-0.48723 -14.7168,-0.66016 0.0991,-3.49521 0.36644,-8.1142 0.76563,-14.38086 z m -16.81641,17.22852 c 4.2179,0.15937 8.38141,0.38916 12.24414,0.63476 -0.148,6.5772 -0.0807,11.57419 0.29688,12.97657 0.0212,0.0786 0.037,0.18922 0.0566,0.27734 -1.12999,-0.16059 -1.88983,-0.45594 -3.99219,-1.5293 -1.53074,-0.78155 -3.09155,-1.70165 -3.4668,-2.04492 -1.92048,-1.75811 -3.77403,-4.58557 -4.56445,-6.95898 -0.28784,-0.86429 -0.48034,-2.05249 -0.57422,-3.35547 z m 15.99805,0.88476 c 7.02398,0.48602 12.43505,0.95759 13.90234,1.00586 0.16584,-0.0381 0.38009,-0.0659 0.58399,-0.0957 -0.2655,1.53702 -0.53262,2.24029 -1.55665,4.15039 -1.0096,1.88631 -1.59069,2.70629 -2.61132,3.70313 -2.65249,2.59073 -5.95195,4.05544 -9.70899,4.35351 -0.39499,-5.67695 -0.60136,-9.28112 -0.60937,-13.11719 z"
       style="opacity:1;fill:#000000;fill-opacity:1;stroke:none;stroke-width:2.13625288;stroke-linecap:round;stroke-linejoin:round;stroke-miterlimit:4;stroke-dasharray:none;stroke-dashoffset:0;stroke-opacity:1" />
    <path
       id="path5087"
       d="m 998.63675,-571.54738 c -3.1858,-0.0941 -3.4591,-4.86227 -6.68923,-4.76696 -3.25325,0.69264 -4.21825,5.05258 -7.71732,5.34287 -2.70526,1.21785 -2.53732,4.61268 -2.42602,7.10261 0.70174,3.75143 -4.13217,3.79076 -6.14087,5.62742 -2.2476,2.65264 1.33603,5.61393 3.94524,5.83338 2.46332,1.31385 1.66282,4.5403 0.52361,6.49698 -2.73923,2.89962 0.9112,5.69917 2.22528,8.19559 0.83791,2.61084 -1.59794,6.29547 1.37496,8.09688 2.82207,1.16689 4.43812,-3.19985 7.23604,-2.20743 1.82647,1.28958 2.47358,3.92195 4.68521,4.84653 2.4777,0.69777 4.46865,-3.13671 7.04595,-0.71836 2.0094,1.93822 5.4816,2.69315 6.5873,-0.58617 0.7623,-2.7762 2.9665,-3.71923 5.6356,-3.62067 4.3415,-0.36223 2.8151,-4.84068 3.8877,-7.61496 1.5347,-2.6799 6.5899,-1.02142 6.5091,-5.21187 0.08,-2.65209 -3.0768,-4.55419 -1.7858,-7.40439 1.1368,-2.34518 1.9791,-4.91526 1.6327,-7.56425 0.1929,-2.6166 2.0312,-5.70809 -0.026,-8.01325 -2.4571,-1.82387 -5.1389,1.62268 -7.727,0.75544 -2.5742,-1.5869 -1.442,-5.82157 -4.567,-7.01006 -3.2694,-1.67305 -6.49,0.76818 -9.6745,1.38543 -1.5006,0.39011 -3.0168,0.71681 -4.53395,1.03524 z"
       style="opacity:1;fill:#000000;fill-opacity:1;stroke:none;stroke-width:2.13625288;stroke-linecap:round;stroke-linejoin:round;stroke-miterlimit:4;stroke-dasharray:none;stroke-dashoffset:0;stroke-opacity:1" />
  </g>
  <g
     transform="translate(1092.1023,687.0022)"
     id="layer2" />
</svg>
