<svg xmlns="http://www.w3.org/2000/svg" xmlns:xlink="http://www.w3.org/1999/xlink" version="1.1" width="256" height="256" viewBox="0 0 256 256" xml:space="preserve">

<defs>
</defs>
<g style="stroke: none; stroke-width: 0; stroke-dasharray: none; stroke-linecap: butt; stroke-linejoin: miter; stroke-miterlimit: 10; fill: none; fill-rule: nonzero; opacity: 1;" transform="translate(1.4065934065934016 1.4065934065934016) scale(2.81 2.81)" >
	<linearGradient id="SVGID_1" gradientUnits="userSpaceOnUse" x1="45" y1="84.7883" x2="45" y2="4.2607">
<stop offset="0%" style="stop-color:rgb(33,97,172);stop-opacity: 1"/>
<stop offset="100%" style="stop-color:rgb(43,127,226);stop-opacity: 1"/>
</linearGradient>
<circle cx="45" cy="45" r="45" style="stroke: none; stroke-width: 1; stroke-dasharray: none; stroke-linecap: butt; stroke-linejoin: miter; stroke-miterlimit: 10; fill: url(#SVGID_1); fill-rule: nonzero; opacity: 1;" transform="  matrix(1 0 0 1 0 0) "/>
	<path d="M 61.962 49.445 c 0 6.573 -1.477 11.642 -4.429 15.207 C 54.58 68.217 50.42 70 45.05 70 c -5.414 0 -9.603 -1.793 -12.566 -5.381 c -2.963 -3.587 -4.445 -8.644 -4.445 -15.173 v -8.89 c 0 -6.573 1.476 -11.642 4.429 -15.207 C 35.419 21.783 39.591 20 44.983 20 s 9.571 1.794 12.533 5.381 c 2.963 3.588 4.445 8.656 4.445 15.207 V 49.445 z M 50.698 39.118 c 0 -3.498 -0.457 -6.111 -1.37 -7.838 c -0.914 -1.726 -2.362 -2.59 -4.345 -2.59 c -1.939 0 -3.347 0.802 -4.228 2.407 c -0.88 1.604 -1.353 4.033 -1.42 7.286 v 12.433 c 0 3.632 0.457 6.29 1.371 7.971 c 0.913 1.683 2.361 2.524 4.344 2.524 c 1.917 0 3.33 -0.819 4.245 -2.456 s 1.382 -4.206 1.404 -7.705 V 39.118 z" style="stroke: none; stroke-width: 1; stroke-dasharray: none; stroke-linecap: butt; stroke-linejoin: miter; stroke-miterlimit: 10; fill: rgb(255,255,255); fill-rule: nonzero; opacity: 1;" transform=" matrix(1 0 0 1 0 0) " stroke-linecap="round" />
</g>
</svg>